<svg width="245" height="142" viewBox="0 0 245 142" fill="none" xmlns="http://www.w3.org/2000/svg">
<g clip-path="url(#clip0_2419_46521)">
<g clip-path="url(#clip1_2419_46521)">
<path d="M144.814 155.984C144.814 155.984 164.823 146.831 168.263 142.057C171.704 137.284 166.651 137.014 166.651 137.014C166.651 137.014 175.581 128.957 174.324 125.566C173.067 122.175 168.442 125.285 168.442 125.285C168.442 125.285 174.184 113.428 171.477 112.236C166.435 110.016 159.36 122.773 159.36 122.773C159.36 122.773 160.881 117.231 157.408 117.411C152.172 117.683 152.388 130.219 152.388 130.219C152.388 130.219 151.797 125.412 148.64 126.973C142.973 129.775 144.814 155.984 144.814 155.984Z" fill="#355389"/>
<path d="M147.496 125.034C149.961 123.766 152.416 127.474 152.416 127.474C152.416 127.474 152.168 117.683 157.404 117.411C160.876 117.231 159.356 122.773 159.356 122.773C159.356 122.773 166.43 110.016 171.473 112.236L144.79 155.779C144.602 152.739 142.614 127.548 147.496 125.034Z" fill="#466EB6"/>
<path d="M145.331 156.095C145.331 156.095 161.695 157.981 165.933 156.301C170.17 154.62 167.133 152.545 167.133 152.545C167.133 152.545 176.232 150.886 176.934 148.297C177.636 145.708 173.439 145.914 173.439 145.914C173.439 145.914 182.163 140.674 180.996 138.91C178.823 135.624 168.824 140.915 168.824 140.915C168.824 140.915 172.199 138.031 169.955 136.834C166.569 135.03 161.214 142.931 161.214 142.931C161.214 142.931 161.546 140.983 158.894 140.768C154.134 140.381 145.331 156.095 145.331 156.095Z" fill="#355389"/>
<path d="M158.786 139.354C161.438 139.569 161.214 142.932 161.214 142.932C161.214 142.932 166.666 133.567 170.051 135.371C172.296 136.568 169.641 140.498 169.641 140.498C169.641 140.498 178.823 135.625 180.996 138.911L145.281 156.013C146.495 154.045 154.34 138.992 158.786 139.354Z" fill="#466EB6"/>
<path d="M102.553 155.505C102.553 155.505 82.5435 146.352 79.102 141.579C75.6605 136.805 80.7147 136.535 80.7147 136.535C80.7147 136.535 71.7847 128.478 73.0415 125.087C74.2984 121.696 78.9859 124.937 78.9859 124.937C78.9859 124.937 73.1802 112.949 75.8895 111.757C80.9319 109.537 88.0051 122.295 88.0051 122.295C88.0051 122.295 86.4849 116.752 89.9576 116.933C95.1934 117.204 94.9773 129.74 94.9773 129.74C94.9773 129.74 95.5687 124.934 98.7252 126.495C104.393 129.296 102.553 155.505 102.553 155.505Z" fill="#355389"/>
<path d="M99.8702 124.556C97.405 123.287 94.9505 126.995 94.9505 126.995C94.9505 126.995 95.1988 117.204 89.963 116.933C86.4903 116.752 88.0105 122.295 88.0105 122.295C88.0105 122.295 80.9373 109.537 75.8949 111.757L102.573 155.297C102.764 152.26 104.752 127.072 99.8702 124.556Z" fill="#466EB6"/>
<path d="M102.036 155.619C102.036 155.619 85.6711 157.504 81.434 155.824C77.1969 154.145 80.2331 152.068 80.2331 152.068C80.2331 152.068 71.1343 150.41 70.4333 147.817C69.7323 145.224 74.0747 145.482 74.0747 145.482C74.0747 145.482 65.2039 140.196 66.3704 138.429C68.5432 135.151 78.543 140.437 78.543 140.437C78.543 140.437 75.1671 137.552 77.4119 136.356C80.7975 134.551 86.1538 142.452 86.1538 142.452C86.1538 142.452 85.8205 140.505 88.4728 140.289C93.2324 139.903 102.036 155.619 102.036 155.619Z" fill="#355389"/>
<path d="M88.1944 137.652C85.541 137.869 85.5829 140.258 85.5829 140.258C85.5829 140.258 80.7007 133.088 77.3152 134.892C75.0703 136.089 77.7259 140.019 77.7259 140.019C77.7259 140.019 68.5432 135.151 66.3704 138.432L102.086 155.534C100.871 153.566 92.6389 137.291 88.1944 137.652Z" fill="#466EB6"/>
<path d="M197.595 111.027C198.087 109.93 198.588 108.827 199.866 108.271C200.899 107.82 201.979 107.989 202.898 108.631C205.5 110.446 203.233 112.447 206.195 115.889C207.115 116.959 208.23 117.822 208.782 119.08C209.554 120.834 208.634 121.673 207.16 122.518C200.109 126.538 196.409 118.282 196.545 116.394C196.647 114.985 197.278 111.735 197.595 111.027Z" fill="#13375B"/>
<path d="M197.701 126.305L203.705 130.535C203.705 130.535 200.732 133.188 199.619 134.173C198.507 135.159 191.626 139.751 191.528 139.977C191.456 140.145 193.093 145.423 194.149 148.24C193.515 148.839 192.117 149.431 191.29 149.625C189.209 145.941 186.651 139.652 186.651 138.8C186.648 137.41 197.701 126.305 197.701 126.305Z" fill="#355389"/>
<path d="M214.541 134.744C214.346 134.921 213.042 137.276 212.546 138.534C211.82 138.11 211.381 137.604 210.571 137.319C211.21 136.46 212.458 134.393 212.561 133.901C212.804 132.734 213.09 132.562 213.09 132.562C213.09 132.562 217.306 133.886 217.588 134.258C217.87 134.63 215.33 134.031 214.541 134.744Z" fill="#F7A491"/>
<path d="M212.511 134.163C212.189 134.163 212.539 132.792 212.619 132.476C212.704 132.121 212.925 132.014 212.98 132.001C213.13 131.967 217.818 133.438 218.609 133.967C218.672 134.018 218.727 134.077 218.774 134.141C219.204 134.891 215.343 135.034 214.787 134.706C214.289 134.415 213.983 134.159 212.511 134.163Z" fill="#3C8F7C"/>
<path d="M196.42 127.554L201.66 125.59C201.639 125.598 201.691 125.789 201.696 125.802C202.187 127.577 204.813 126.892 205.889 129.975C206.653 132.154 207.772 140.3 207.772 140.3C207.772 140.3 208.566 138.904 211.031 136.323C211.222 136.123 213.651 137.671 213.651 137.671C211.845 142.113 207.41 145.723 206.809 145.467C202.751 143.74 197.878 130.115 197.885 130.116C197.426 129.282 196.42 127.554 196.42 127.554Z" fill="#466EB6"/>
<path d="M196.226 113.215C196.226 113.215 193.769 109.605 193.341 108.404C192.913 107.203 193.341 101.485 193.378 101.079C193.416 100.672 194.904 99.5616 194.669 99.2424C194.433 98.9233 192.385 98.662 192.04 98.7248C191.695 98.7876 191.027 98.7248 190.75 98.9871C190.714 99.021 191.402 100.526 191.387 100.759C191.289 102.355 190.312 107.427 190.635 108.799C191.002 110.376 194.651 115.418 194.651 115.418L196.226 113.215Z" fill="#F7A491"/>
<path d="M205.151 115.317C205.151 115.317 211.725 115.469 213.168 115.578C214.611 115.688 219.849 115.279 220.049 115.262C220.249 115.245 221.594 113.133 221.817 113.359C222.039 113.586 221.07 114.404 221.37 114.617C221.67 114.829 224.891 114.354 224.848 114.574C224.769 114.988 222.89 114.935 222.891 115.135C222.892 115.334 224.858 115.023 224.991 115.354C225.125 115.685 223.101 115.489 223.02 115.636C222.938 115.784 224.897 116.055 224.697 116.363C224.589 116.531 222.963 116.084 222.97 116.312C222.978 116.541 224.165 117.059 224.018 117.241C223.872 117.422 223.087 116.683 222.399 116.674C221.711 116.665 221.217 116.331 220.12 116.612C219.023 116.892 215.282 118.291 212.933 118.188C210.584 118.086 205.407 117.871 205.407 117.871L205.151 115.317Z" fill="#F7A491"/>
<path d="M195.501 121.686C195.411 120.68 195.26 117.965 195.309 117.632C194.987 116.587 193.785 115.039 193.533 114.6C193.533 114.6 195.157 112.893 196.361 112.904C196.361 112.904 197.641 114.4 198.592 114.864C198.606 114.864 198.928 114.997 199.07 114.997C199.987 114.991 203.194 114.897 203.792 115.066L203.453 119.663C203.281 119.926 203.072 125.212 202.717 125.647C202.362 126.082 197.2 128.062 196.345 127.551C196.311 127.535 195.679 123.719 195.501 121.686Z" fill="#50BFA5"/>
<path d="M202.122 115.176C202.714 114.914 207.035 114.923 207.035 114.923C207.035 114.923 207.633 117.688 207.15 118.353C207.15 118.353 203.322 118.881 203.432 119.172L202.122 115.176Z" fill="#50BFA5"/>
<path d="M201.162 113.308C201.162 113.308 200.83 114.904 200.897 115.532C200.963 116.161 200.643 118.188 199.208 118.195C197.772 118.202 198.936 115.618 199.071 115.004C199.207 114.389 199.238 112.479 199.238 112.479L201.162 113.308Z" fill="#F7A491"/>
<path d="M199.208 113.433C199.229 112.911 199.237 112.476 199.237 112.476L201.162 113.308C201.162 113.308 201.095 113.634 201.026 114.05C200.183 114.206 199.572 113.917 199.208 113.433Z" fill="#F47458"/>
<path d="M201.865 108.907C202.349 109.185 202.71 109.614 202.883 110.117C203.153 110.944 202.845 113.078 200.929 113.594C199.013 114.109 198.183 112.419 198.578 111.1C198.972 109.782 199.826 108.101 201.865 108.907Z" fill="#F7A491"/>
<path d="M198.334 110.584C198.371 110.939 198.582 111.21 198.806 111.19C199.029 111.17 199.179 110.865 199.141 110.51C199.103 110.155 198.893 109.883 198.669 109.904C198.445 109.925 198.296 110.228 198.334 110.584Z" fill="#F7A491"/>
<path d="M205.248 96.0359L199.97 97.7763C199.837 97.8203 199.718 97.8935 199.623 97.9896C199.528 98.0856 199.459 98.2017 199.423 98.3279L197.979 103.362C197.937 103.507 197.852 103.638 197.734 103.741C197.616 103.844 197.469 103.914 197.31 103.943C197.152 103.972 196.987 103.96 196.836 103.907C196.684 103.854 196.552 103.762 196.453 103.643L193.035 99.5088C192.95 99.4052 192.838 99.3224 192.711 99.2677C192.583 99.213 192.443 99.1879 192.302 99.1946L186.711 99.4649C186.55 99.4723 186.389 99.4377 186.247 99.3649C186.105 99.2921 185.988 99.184 185.908 99.0527C185.829 98.9215 185.791 98.7723 185.798 98.6221C185.805 98.4718 185.858 98.3264 185.949 98.2022L189.115 93.9065C189.195 93.7987 189.245 93.6745 189.261 93.5447C189.278 93.4149 189.26 93.2834 189.209 93.1615L187.196 88.2943C187.138 88.1542 187.123 88.0018 187.153 87.8543C187.184 87.7067 187.258 87.57 187.367 87.4595C187.477 87.349 187.618 87.2691 187.774 87.2289C187.93 87.1888 188.095 87.1899 188.25 87.2322L193.626 88.7113C193.76 88.7488 193.903 88.7552 194.041 88.7298C194.179 88.7045 194.308 88.6481 194.417 88.5656L198.767 85.2873C198.893 85.1926 199.045 85.1325 199.206 85.1138C199.367 85.0952 199.53 85.1187 199.677 85.1817C199.824 85.2447 199.949 85.3447 200.038 85.4704C200.127 85.5961 200.177 85.7424 200.181 85.8927L200.336 91.1029C200.34 91.2337 200.378 91.3616 200.446 91.4757C200.515 91.5898 200.613 91.6867 200.731 91.7582L205.433 94.5987C205.568 94.6811 205.677 94.797 205.745 94.9333C205.814 95.0697 205.84 95.2211 205.821 95.3705C205.801 95.5199 205.738 95.6614 205.636 95.7789C205.535 95.8965 205.401 95.9855 205.248 96.0359Z" fill="#F7CC7F"/>
<path d="M194.634 99.2923C194.831 99.5606 193.764 100.41 193.469 100.88L192.799 100.033C193.129 99.9735 194.409 98.9861 194.634 99.2923Z" fill="#F7A491"/>
<path d="M201.641 108.799C201.641 108.799 201.988 111.18 202.823 111.61C203.659 112.04 203.305 113.096 203.305 113.096C203.305 113.096 204.058 110.643 203.402 109.855C202.746 109.067 201.641 108.799 201.641 108.799Z" fill="#13375B"/>
<path d="M202.327 111.952C202.101 112.262 202.102 112.628 202.327 112.769C202.551 112.909 202.919 112.769 203.144 112.463C203.368 112.156 203.367 111.786 203.144 111.646C202.92 111.505 202.551 111.642 202.327 111.952Z" fill="#F7A491"/>
<path d="M193.022 99.4918C193.022 99.4978 193.033 99.5028 193.038 99.5088L193.281 99.803C193.102 99.7581 192.762 99.6684 192.43 99.8788C192.43 99.8788 192.54 99.6614 193.022 99.4918Z" fill="#F47257"/>
<path d="M48.7888 125.951C48.8533 125.976 47.9287 127.076 47.0385 127.853C46.316 128.694 45.6408 129.689 45.4054 130.774C45.0517 132.425 45.3462 140.576 45.0377 141.157C42.3875 143.56 40.4673 149.594 39.9287 151.43C39.8237 151.788 39.6112 152.112 39.3159 152.363L39.4341 154.444L40.7533 155.573C40.7533 155.573 40.4598 153.877 41.0457 152.621C41.0457 152.621 47.7191 143.245 48.1147 142.529C48.8673 140.489 51.6282 130.032 51.6282 130.032L52.2733 127.628L48.7888 125.951Z" fill="#F7A491"/>
<path d="M54.4924 129.565C54.4924 129.565 58.7929 138.091 58.8187 139.59C58.8423 140.875 58.0661 148.084 58.2811 154.087C58.2886 154.304 58.5854 154.591 59.0154 154.775C59.2584 154.875 60.4281 155.363 60.4281 155.363L60.5894 155.751L56.5577 155.484L56.4996 154.463C56.4996 154.463 54.8955 145.486 55.059 142.943C55.0848 142.544 55.2933 140.15 55.2933 140.15L50.4467 131.468L53.4946 127.752L54.4924 129.565Z" fill="#F7A491"/>
<path d="M54.8955 110.429C54.2505 108.819 52.5432 107.844 50.7713 108.145C50.5004 107.74 50.1456 107.389 49.7274 107.112C49.3092 106.835 48.836 106.637 48.3351 106.531C46.3902 106.144 43.7594 106.857 43.8303 108.768C43.0777 110.052 43.0466 111.887 44.2012 112.863C43.7991 114.59 45.5419 116.255 47.8072 116.198C48.5964 117.405 50.0994 118.181 51.5938 118.016C51.9529 117.976 52.5001 117.893 52.5905 117.916C52.4765 117.897 54.9912 119.685 57.1232 116.935C59.2971 114.125 57.7693 110.728 54.8955 110.429Z" fill="#355389"/>
<path d="M54.6386 100.773C54.7436 100.543 54.8733 100.323 55.0256 100.116L55.1933 99.8888C55.2138 99.8479 55.2299 99.814 55.2385 99.789C55.3116 99.5895 55.2557 98.9393 55.2557 98.9393L53.786 99.2694L53.4635 100.057C53.1355 99.9167 52.5765 98.8605 52.3733 99.1148C52.1314 99.414 53.0399 100.711 53.1119 101.063C53.1839 101.415 52.3303 106.869 52.0841 107.952C51.8379 109.036 50.1747 112.06 50.1747 112.06L51.696 113.855C51.696 113.855 54.1354 109.244 54.2956 107.836C54.3128 107.688 54.3322 107.467 54.3526 107.192L54.6386 100.773Z" fill="#F7A491"/>
<path d="M44.5034 117.855L42.6961 116.434C42.6961 116.434 41.2328 118.697 40.0609 120.542C38.8976 120.152 35.8937 118.336 35.7454 118.248C35.597 118.161 35.268 116.111 35.0132 116.22C34.7584 116.328 35.2089 117.304 34.9003 117.377C34.5918 117.449 32.2781 116.015 32.2308 116.207C32.1415 116.566 33.6112 117.136 33.5371 117.297C33.4629 117.457 32.0598 116.565 31.8362 116.787C31.6126 117.01 33.2457 117.513 33.2543 117.658C33.2629 117.802 31.6534 117.382 31.6954 117.695C31.719 117.864 33.136 118.036 33.0468 118.217C32.9576 118.399 31.8534 118.428 31.8996 118.616C31.9459 118.805 32.821 118.472 33.3554 118.689C33.8897 118.907 34.3918 118.8 35.1379 119.387C35.8841 119.975 39.5459 123.298 40.691 123.013C41.6876 122.768 44.5034 117.855 44.5034 117.855Z" fill="#F7A491"/>
<path d="M50.7885 115.741C50.9047 115.086 51.9981 113.447 52.1701 113.043C52.1701 113.043 50.9025 111.547 49.8736 111.662C49.8736 111.662 48.491 113.788 47.704 113.856C46.917 113.924 44.1561 114.038 43.668 114.311C43.1799 114.583 41.1253 117.514 41.1253 117.514C41.1253 117.514 42.9745 119.266 43.7174 119.262C43.7174 119.262 44.1131 118.54 44.2711 118.382C44.3786 118.717 46.1053 123.893 46.0988 125.064L46.1128 125.074C46.4932 125.362 46.9326 125.574 47.4043 125.699C47.876 125.823 48.3701 125.858 48.8566 125.8C49.3431 125.742 49.8117 125.593 50.234 125.361C50.6564 125.13 51.0235 124.821 51.3132 124.454C51.2271 123.422 51.2059 122.386 51.2498 121.352C51.3831 119.027 51.8916 117.788 50.7885 115.741Z" fill="#F47458"/>
<path d="M59.753 135.767L51.3164 124.46C50.8116 124.663 50.2861 124.819 49.7478 124.926C48.5383 125.142 47.3277 125.107 46.1021 125.07C46.1024 125.107 46.1003 125.144 46.0956 125.181C45.9548 126.114 44.6216 127.557 44.3475 130.385C44.0357 133.596 44.2238 139.173 44.3292 139.539C49.9381 138.907 58.1618 137.316 59.753 135.767Z" fill="#466EB6"/>
<path d="M54.8375 99.9236C54.8375 99.9236 54.3074 100.253 53.857 100.147C53.6217 100.101 53.3985 100.012 53.2001 99.8857C53.2001 99.8857 53.4484 100.307 53.8161 100.49C54.4461 100.805 54.8375 99.9236 54.8375 99.9236Z" fill="#F47458"/>
<path d="M44.3722 97.5908L49.278 96.6523C49.402 96.6289 49.5304 96.635 49.6512 96.6698C49.772 96.7047 49.8814 96.7673 49.9693 96.8517L53.5559 100.235C53.6595 100.332 53.7908 100.399 53.9343 100.428C54.0778 100.458 54.2274 100.448 54.3653 100.401C54.5032 100.354 54.6235 100.271 54.712 100.162C54.8005 100.053 54.8534 99.923 54.8644 99.787L55.4492 94.9777C55.4628 94.8586 55.5068 94.7442 55.5777 94.6441C55.6486 94.544 55.7442 94.461 55.8567 94.4022L60.2809 92.1501C60.4095 92.0814 60.5157 91.9816 60.5883 91.8615C60.6609 91.7413 60.6972 91.6052 60.6934 91.4675C60.6895 91.3298 60.6457 91.1957 60.5664 91.0792C60.4872 90.9627 60.3755 90.8682 60.2432 90.8057L55.6976 88.7731C55.5819 88.7203 55.4816 88.6424 55.4053 88.5461C55.3289 88.4497 55.2787 88.3377 55.2589 88.2195L54.4074 83.4411C54.3887 83.3059 54.3285 83.1786 54.2339 83.0742C54.1393 82.9698 54.0144 82.8929 53.8741 82.8526C53.7337 82.8122 53.5838 82.8101 53.4422 82.8466C53.3006 82.883 53.1732 82.9565 53.0753 83.0581L49.6822 86.6118C49.5992 86.7 49.4935 86.7675 49.375 86.808C49.2564 86.8484 49.1288 86.8605 49.0038 86.8432L44.0583 86.145C43.4229 86.0552 42.9584 86.7095 43.2723 87.2521L45.7183 91.4819C45.7798 91.5889 45.8136 91.7077 45.817 91.8289C45.8204 91.9501 45.7932 92.0703 45.7376 92.1801L43.5304 96.5236C43.2433 97.0801 43.7432 97.7115 44.3722 97.5908Z" fill="#F7CC7F"/>
<path d="M46.2816 111.975C46.2816 111.975 46.5784 113.457 46.5192 114.041C46.4601 114.626 46.745 116.511 48.0244 116.517C49.3038 116.523 48.2674 114.123 48.147 113.549C48.0266 112.974 47.9975 111.202 47.9975 111.202L46.2816 111.975Z" fill="#F7A491"/>
<path d="M48.0265 112.092C48.0061 111.606 47.9997 111.202 47.9997 111.202L46.2795 111.975C46.2795 111.975 46.3397 112.274 46.401 112.664C47.1557 112.81 47.7008 112.541 48.0265 112.092Z" fill="#F47458"/>
<path d="M45.6537 107.884C45.2184 108.147 44.898 108.546 44.7496 109.008C44.5077 109.777 44.7829 111.76 46.4934 112.239C48.2039 112.718 48.9447 111.142 48.5921 109.918C48.2394 108.695 47.4739 107.135 45.6537 107.884Z" fill="#F7A491"/>
<path d="M48.806 109.443C48.7727 109.773 48.5835 110.025 48.3846 110.006C48.1857 109.987 48.0524 109.707 48.0857 109.374C48.119 109.041 48.3072 108.792 48.5061 108.811C48.7049 108.83 48.8393 109.112 48.806 109.443Z" fill="#F7A491"/>
<path d="M45.242 110.715C45.443 111.003 45.4419 111.343 45.242 111.475C45.042 111.607 44.7141 111.475 44.513 111.19C44.312 110.905 44.3131 110.562 44.513 110.43C44.713 110.298 45.0409 110.426 45.242 110.715Z" fill="#F7A491"/>
<path d="M55.0826 98.1134C54.7504 98.0536 53.3463 99.0759 53.3624 99.2285C53.3785 99.3811 54.745 98.7298 54.7837 98.8375C54.8149 98.9193 53.2506 99.2993 53.3323 99.4449C53.3882 99.5446 54.7912 99.2704 54.8289 99.3342C54.8869 99.4339 53.6581 99.4758 53.7376 99.5865C53.829 99.7142 54.9998 99.6613 54.9998 99.6613C54.9998 99.6613 55.2353 99.3103 55.2589 99.1786C55.2698 99.1039 55.2716 99.0283 55.2643 98.9532C55.2643 98.8814 55.2944 98.8186 55.2837 98.7378C55.2364 98.4086 55.2675 98.1483 55.0826 98.1134Z" fill="#F7A491"/>
<path d="M53.2108 98.8954L52.6883 99.4938L52.3443 99.2554C52.3355 99.2337 52.3319 99.2106 52.3338 99.1875C52.3356 99.1644 52.3429 99.142 52.355 99.1218C52.3959 99.04 53.2001 98.6739 53.2108 98.8954Z" fill="#F7A491"/>
<path d="M52.7259 99.4529C52.7259 99.4529 53.4172 99.8448 53.7032 100.302C53.7872 100.425 53.8441 100.562 53.8705 100.706C53.8968 100.85 53.8923 100.997 53.857 101.139L52.6743 99.788L52.7259 99.4529Z" fill="#F7A491"/>
<path d="M153.944 46.009C153.82 46.5456 153.709 47.1001 153.406 47.5489C152.889 48.1287 152.4 48.7271 151.938 49.3442C152.26 49.3232 152.577 49.3093 152.905 49.3093C156.094 49.3093 159.061 50.3515 161.261 52.2435C163.227 53.9341 164.309 56.1013 164.309 58.3454C164.309 60.5895 163.227 62.7568 161.261 64.4483C159.061 66.3433 156.094 67.3816 152.905 67.3816C149.716 67.3816 146.763 66.3453 144.567 64.4623C144.406 64.9021 144.244 65.339 144.087 65.7778C143.012 66.2835 142.259 67.4733 142.259 68.8627C142.259 70.7098 143.596 72.2078 145.244 72.2078C146.54 72.2078 147.641 71.2793 148.053 69.9857C149.619 70.4687 151.258 70.7142 152.908 70.7128C160.848 70.7128 167.286 65.1754 167.286 58.3454C167.282 51.8117 161.399 46.4678 153.944 46.009Z" fill="#E0973F"/>
<path d="M89.4662 46.009C89.5888 46.5456 89.7006 47.1001 90.0038 47.5489C90.5199 48.1287 91.0094 48.7271 91.4724 49.3442C91.1499 49.3232 90.8274 49.3093 90.5048 49.3093C87.316 49.3093 84.3476 50.3515 82.1489 52.2435C80.1825 53.9341 79.0999 56.1013 79.0999 58.3454C79.0999 60.5895 80.1836 62.7518 82.1457 64.4433C84.3443 66.3383 87.3128 67.3766 90.5016 67.3766C93.6904 67.3766 96.6427 66.3403 98.8403 64.4573C99.0005 64.8971 99.1628 65.334 99.3187 65.7728C100.394 66.2785 101.146 67.4683 101.146 68.8577C101.146 70.7048 99.81 72.2028 98.1608 72.2028C96.8642 72.2028 95.7643 71.2743 95.3526 69.9807C93.7868 70.4637 92.1473 70.7092 90.4973 70.7078C82.5575 70.7078 76.1196 65.1704 76.1196 58.3404C76.125 51.8117 82.0113 46.4678 89.4662 46.009Z" fill="#E0973F"/>
<path d="M156.012 44.6006V48.0156C156.012 63.4459 142.525 75.9579 125.892 75.9579C118.23 75.8581 112.974 76.5982 105.7 73.6111C95.2182 69.3473 87.6729 59.5771 87.6729 48.0156V44.6006H156.012Z" fill="#F7CC7F"/>
<path d="M105.7 73.6131L105.722 73.6221L116.55 44.5987H105.278L96.5997 67.8633C99.2272 70.2814 102.312 72.2304 105.7 73.6131Z" fill="#FAE0B2"/>
<path d="M112.744 75.5689L124.169 44.6006H118.507L107.549 74.3112C109.232 74.8873 110.972 75.3085 112.744 75.5689Z" fill="#FAE0B2"/>
<path d="M95.502 66.802L104.046 44.6006H101.358L93.6281 64.6876C94.2158 65.4217 94.8404 66.1265 95.502 66.802Z" fill="#FAE0B2"/>
<path d="M153.029 42.6658H90.8284C88.5588 42.6658 86.7075 43.8377 86.5774 45.3138H157.28C157.149 43.8377 155.298 42.6658 153.029 42.6658Z" fill="#F7CC7F"/>
<path d="M110.294 75.1411L113.812 91.8998H129.202L133.563 75.1411H110.294Z" fill="#F7CC7F"/>
<path d="M133.564 75.1421L132.58 78.9241H111.089L110.295 75.1421H133.564Z" fill="#B75742"/>
<path d="M133.564 112.634H110.295L112.039 104.315L113.811 95.8734H129.204L131.401 104.315L133.564 112.634Z" fill="#F7CC7F"/>
<path d="M133.564 112.634H110.295L112.039 104.315H131.401L133.564 112.634Z" fill="#B75742"/>
<path d="M111.113 91.9008H131.902C132.12 91.9003 132.336 91.9397 132.538 92.0169C132.74 92.0941 132.923 92.2074 133.078 92.3504C133.233 92.4935 133.355 92.6634 133.439 92.8505C133.523 93.0376 133.566 93.2382 133.566 93.4408V94.3324C133.566 94.535 133.523 94.7356 133.439 94.9228C133.355 95.1099 133.233 95.2799 133.078 95.4231C132.924 95.5662 132.74 95.6796 132.538 95.7569C132.336 95.8342 132.12 95.8737 131.902 95.8733H111.114C110.673 95.8733 110.251 95.711 109.939 95.422C109.628 95.133 109.453 94.7411 109.453 94.3324V93.4398C109.453 93.0315 109.628 92.6401 109.939 92.3515C110.251 92.0629 110.673 91.9008 111.113 91.9008Z" fill="#FAE0B2"/>
<path d="M108.756 106.027H134.318C134.575 106.027 134.821 106.121 135.003 106.289C135.184 106.458 135.286 106.686 135.286 106.924V111.504H107.794V106.92C107.795 106.684 107.897 106.457 108.077 106.29C108.257 106.122 108.501 106.028 108.756 106.027Z" fill="#F7CC7F"/>
<path d="M144.361 114.771V116.436H98.7113V114.771C98.7113 112.853 99.9735 111.295 101.528 111.295H141.544C143.099 111.295 144.361 112.853 144.361 114.771Z" fill="#F7CC7F"/>
<path d="M109.458 111.296L108.014 116.436H106.109L107.553 111.296H109.458Z" fill="#FAE0B2"/>
<path d="M106.731 111.296L105.287 116.436H103.379L104.826 111.296H106.731Z" fill="#FAE0B2"/>
<path d="M111.884 111.296L110.44 116.436H108.531L109.979 111.296H111.884Z" fill="#FAE0B2"/>
<path d="M141.415 71.9734V73.2301C141.416 73.747 141.306 74.259 141.093 74.7366C140.88 75.2143 140.568 75.6483 140.174 76.014C139.78 76.3796 139.312 76.6697 138.798 76.8677C138.283 77.0657 137.731 77.1676 137.174 77.1677H106.533C105.975 77.1679 105.423 77.0661 104.908 76.8683C104.393 76.6704 103.925 76.3804 103.531 76.0147C103.137 75.6491 102.824 75.2149 102.611 74.7371C102.398 74.2594 102.288 73.7473 102.288 73.2301V71.9734H141.415Z" fill="#F7CC7F"/>
<path d="M150.744 150.995H93.1787L93.8807 116.437H149.972L150.744 150.995Z" fill="#3C8F7C"/>
<path d="M137.055 150.995H106.868L107.236 116.437H136.65L137.055 150.995Z" fill="#50BFA5"/>
<path d="M131.221 149.956L126.656 143.042L119.948 148.238L126.851 109.249L138.123 110.966L131.221 149.956Z" fill="#B75742"/>
<path d="M152.074 148.219L145.352 143.037L140.805 149.961L133.806 110.985L145.074 109.244L152.074 148.219Z" fill="#B75742"/>
<path d="M161.359 118.222C161.359 120.475 159.217 122.386 158.507 124.419C157.769 126.525 158.265 129.234 156.894 130.988C155.504 132.758 152.564 133.152 150.658 134.441C148.768 135.717 147.463 138.196 145.192 138.88C143.002 139.54 140.385 138.267 137.958 138.267C135.53 138.267 132.913 139.54 130.722 138.88C128.451 138.196 127.147 135.717 125.257 134.441C123.348 133.152 120.408 132.758 119.021 130.988C117.646 129.234 118.142 126.525 117.409 124.419C116.697 122.386 114.556 120.475 114.556 118.222C114.556 115.969 116.697 114.059 117.409 112.027C118.146 109.92 117.651 107.211 119.021 105.458C120.411 103.688 123.35 103.294 125.257 102.005C127.147 100.729 128.451 98.2491 130.722 97.5659C132.913 96.9056 135.529 98.1783 137.958 98.1783C140.386 98.1783 143.002 96.9056 145.192 97.5659C147.463 98.2491 148.768 100.729 150.658 102.005C152.567 103.294 155.507 103.688 156.894 105.458C158.269 107.211 157.773 109.92 158.507 112.027C159.217 114.059 161.359 115.97 161.359 118.222Z" fill="#F47458"/>
<path d="M143.784 137.494C143.048 137.494 142.192 137.32 141.285 137.134C140.21 136.917 139.108 136.692 137.952 136.692C136.797 136.692 135.688 136.917 134.619 137.134C133.713 137.32 132.857 137.493 132.121 137.493C131.824 137.499 131.528 137.461 131.244 137.381C130.307 137.1 129.467 136.215 128.579 135.278C127.875 134.536 127.147 133.77 126.254 133.167C125.36 132.564 124.327 132.144 123.341 131.746C122.116 131.247 120.957 130.783 120.389 130.06C119.821 129.337 119.709 128.188 119.578 126.958C119.471 125.961 119.363 124.931 119.015 123.932C118.68 122.974 118.125 122.106 117.588 121.266C116.898 120.186 116.246 119.165 116.246 118.222C116.246 117.28 116.897 116.26 117.588 115.179C118.126 114.34 118.68 113.472 119.015 112.513C119.364 111.516 119.473 110.484 119.578 109.486C119.709 108.258 119.832 107.093 120.39 106.386C120.948 105.678 122.11 105.195 123.341 104.7C124.327 104.301 125.348 103.891 126.254 103.279C127.16 102.666 127.875 101.908 128.579 101.167C129.469 100.231 130.308 99.3462 131.244 99.0639C131.528 98.9842 131.824 98.9465 132.121 98.9522C132.857 98.9522 133.713 99.1258 134.619 99.3113C135.695 99.5287 136.797 99.7541 137.952 99.7541C139.108 99.7541 140.217 99.5287 141.285 99.3113C142.19 99.1258 143.047 98.9522 143.784 98.9522C144.08 98.9465 144.376 98.9842 144.66 99.0639C145.596 99.3462 146.436 100.231 147.325 101.167C148.029 101.908 148.757 102.675 149.651 103.279C150.544 103.882 151.576 104.302 152.562 104.7C153.789 105.199 154.947 105.663 155.515 106.386C156.082 107.109 156.195 108.258 156.325 109.487C156.433 110.485 156.54 111.515 156.89 112.513C157.225 113.472 157.78 114.341 158.316 115.179C159.007 116.26 159.659 117.281 159.659 118.222C159.659 119.164 159.007 120.186 158.316 121.266C157.779 122.106 157.225 122.974 156.89 123.932C156.54 124.93 156.431 125.962 156.325 126.958C156.195 128.188 156.073 129.352 155.515 130.06C154.957 130.768 153.794 131.251 152.562 131.746C151.576 132.145 150.557 132.555 149.651 133.167C148.744 133.779 148.028 134.536 147.325 135.278C146.436 136.215 145.596 137.1 144.66 137.381C144.376 137.462 144.081 137.5 143.784 137.494Z" fill="#F7CC7F"/>
<path d="M154.839 120.414C156.143 111.762 149.639 103.768 140.313 102.558C130.986 101.348 122.368 107.381 121.064 116.033C119.76 124.685 126.264 132.68 135.59 133.89C144.917 135.099 153.535 129.066 154.839 120.414Z" fill="#F47458"/>
<path d="M137.951 133.253C146.899 133.253 154.152 126.524 154.152 118.223C154.152 109.923 146.899 103.194 137.951 103.194C129.004 103.194 121.75 109.923 121.75 118.223C121.75 126.524 129.004 133.253 137.951 133.253Z" fill="white"/>
<path d="M152.57 119.567C153.369 112.079 147.472 105.407 139.399 104.666C131.326 103.925 124.135 109.396 123.336 116.884C122.537 124.373 128.434 131.045 136.507 131.786C144.58 132.527 151.771 127.056 152.57 119.567Z" fill="#F7CC7F"/>
<path d="M130.021 123.98L130.567 120.156H128.847V119.005H130.76L131.16 116.177H129.344V115.026H131.341L131.889 111.3H133.108L132.582 115.026H134.769L135.316 111.3H136.557L136.031 115.026H137.751V116.177H135.838L135.459 119.005H137.267V120.156H135.278L134.731 123.98H133.469L134.016 120.156H131.829L131.279 123.98H130.021ZM134.205 119.005L134.605 116.177H132.418L132.019 119.005H134.205Z" fill="white"/>
<path d="M143.48 112.894H143.438L141.062 114.084L140.704 112.778L143.69 111.295H145.267V123.98H143.48V112.894Z" fill="white"/>
<path d="M155.014 22.2277C154.852 22.8391 154.563 23.8056 154.563 23.8056C154.587 24.0719 154.671 25.1769 154.772 26.5324L152.621 25.7345C152.621 25.7345 152.647 23.5263 152.55 23.3907C152.47 23.277 152.335 23.4196 151.675 22.5459C151.486 22.2936 151.451 21.8427 151.451 21.8427C151.451 21.8427 151.411 21.2882 151.545 21.2363C151.608 21.2166 151.677 21.2185 151.739 21.2418C151.8 21.265 151.851 21.308 151.882 21.363C151.931 21.4628 151.918 21.6822 151.967 21.7779C152.015 21.8737 152.326 21.9894 152.457 21.9834C152.588 21.9774 152.441 20.3427 152.441 20.3427C152.441 20.3427 152.368 19.8799 152.333 19.7273C152.302 19.5987 152.175 19.2197 152.175 19.2197C152.175 19.2197 152.026 18.6691 152.211 18.6272C152.318 18.6023 152.596 19.0491 152.785 19.5249C152.989 20.0355 153.107 20.5771 153.163 20.5701C153.301 20.5532 153.228 19.6565 153.228 19.6565C153.16 19.4601 153.115 19.2574 153.094 19.0521C152.965 18.8147 152.879 18.3749 153.107 18.338C153.149 18.332 153.448 18.8905 153.448 18.8905C153.448 18.8905 153.566 19.2845 153.635 19.469C153.756 19.7932 153.774 20.3058 153.837 20.5322C153.89 20.7207 153.937 20.6429 153.959 20.6509C153.957 20.4471 153.942 20.2435 153.913 20.0415C153.914 19.8435 153.897 19.6457 153.864 19.4501C153.817 19.2443 153.786 19.0357 153.772 18.8257C153.735 18.3619 154.05 18.4098 154.159 18.8337C154.2 18.9943 154.244 19.1708 154.287 19.3493C154.457 20.0475 154.451 20.7137 154.532 20.7197C154.639 20.7267 154.567 19.5079 154.567 19.5079C154.567 19.5079 154.729 18.8327 154.89 19.459C155.004 19.8996 155.059 20.3515 155.053 20.8045C155.039 20.982 155.174 21.6163 155.014 22.2277Z" fill="#F8A492"/>
<path d="M154.874 24.8987C154.874 24.8987 152.454 24.3611 152.431 24.5416C151.923 28.4902 151.695 29.9175 151.608 29.9583C151.315 30.099 147.429 26.8017 146.735 26.5783C146.404 26.4715 146.043 26.4895 145.696 26.4985C144.873 26.5214 144.71 26.5244 144.71 26.5244H144.679V27.2445C145.608 28.0195 147.735 39.7615 147.914 39.7545C148.114 39.7455 152.322 40.7269 152.243 40.3978C152.231 40.3449 149.394 38.1906 148.587 35.0828C148.318 34.0386 148.184 32.9155 148.038 31.9321C148.971 32.366 152.619 34.0266 153.199 33.8112C155.001 33.128 154.874 24.8987 154.874 24.8987Z" fill="#3C8F7C"/>
<path d="M162.11 45.7477C162.11 45.7477 166.021 48.5892 166.152 49.0928C166.34 49.8189 169.92 48.8644 169.055 48.7168C168.856 48.6829 168.22 48.5333 168.168 48.5074C167.888 48.3687 164.405 44.479 164.405 44.479L162.11 45.7477Z" fill="#F7A491"/>
<path d="M170.736 48.7168L168.239 48.5283C168.239 48.5283 167.526 49.0759 166.154 49.1018C166.018 49.5095 165.979 49.9395 166.039 50.3625C166.057 50.4792 166.078 50.8332 166.206 50.8253C166.667 50.7963 167.896 50.5131 169.296 50.2528C169.296 50.2528 171.178 49.8837 172.265 49.2803C173.352 48.6769 170.736 48.7168 170.736 48.7168Z" fill="#B75742"/>
<path d="M144.591 38.6204C146.601 38.8723 148.642 38.7906 150.621 38.3791C154.286 37.5812 158.338 36.8491 159.525 37.4894C160.481 38.0041 166.448 46.366 166.448 46.366L164.144 47.9269L157.572 41.1009C157.572 41.1009 149.186 43.9703 147.307 43.6522C143.018 42.9311 142.958 39.7545 144.591 38.6204Z" fill="#13375B"/>
<path d="M147.721 36.9329L150.586 40.0916L145.271 41.5936L144.59 38.6205L147.721 36.9329Z" fill="#13375B"/>
<path d="M153.544 51.3598C153.544 51.3598 153.37 55.7482 153.261 56.4903C153.152 57.2323 155.268 59.4574 154.998 58.6845C154.936 58.5059 154.776 57.9165 154.776 57.8616C154.776 57.5674 155.56 52.5626 155.56 52.5626L153.544 51.3598Z" fill="#F7A491"/>
<path d="M156.35 60.2813L154.789 57.9255C154.789 57.9255 153.929 57.6034 153.254 56.4963C152.803 56.579 152.377 56.7512 152.004 57.0009C151.897 57.0718 151.202 57.5465 151.252 57.6552C151.431 58.0542 152.384 58.9209 153.425 59.8644C153.425 59.8644 154.901 60.9685 155.989 61.5689C157.077 62.1693 156.35 60.2813 156.35 60.2813Z" fill="#B75742"/>
<path d="M158.185 42.7107C157.183 41.4719 149.102 40.295 149.102 40.295L146.845 36.2776L141.863 39.1281C141.863 39.1281 142.36 42.8064 142.735 43.7888C143.232 45.0984 146.581 45.1652 148.626 45.1452C150.508 45.1273 153.945 45.4834 153.945 45.4834L152.783 54.9972C152.783 54.9972 155.067 55.48 155.71 55.4022C155.792 55.3932 159.43 44.2506 158.185 42.7107Z" fill="#355389"/>
<path d="M144.707 26.5374L141.896 26.683C141.896 26.683 141.831 26.7009 141.812 26.7049C141.583 26.7438 141.792 34.3437 141.996 37.1773C142.2 40.0108 142.614 41.2076 142.614 41.2076C142.614 41.2076 146.426 40.5803 147.596 40.1584C148.082 39.9839 149.257 38.6205 149.257 38.6205C149.257 38.6205 148.056 37.1244 147.452 34.6908C146.986 32.8148 146.41 29.4896 146.081 28.7954C145.326 27.2006 144.707 26.5374 144.707 26.5374Z" fill="#9BC1F9"/>
<path d="M141.977 24.3751L141.896 26.678C141.896 26.678 143.716 29.5863 144.65 29.1814C145.434 28.8413 144.739 26.6281 144.739 26.6281C144.739 26.6281 144.603 26.1215 144.416 25.538C144.284 25.1311 144.175 24.6903 144.183 24.3661C144.201 23.5792 141.977 24.3751 141.977 24.3751Z" fill="#F7A491"/>
<path d="M144.181 24.3661C144.2 23.5792 141.975 24.3751 141.975 24.3751L141.967 24.6005C142.035 24.699 142.119 24.7874 142.216 24.8628C142.833 25.3039 143.608 25.5107 144.383 25.4413C144.262 25.0932 144.194 24.7314 144.181 24.3661Z" fill="#F47458"/>
<path d="M144.15 19.1239C144.15 19.1239 145.077 20.4205 145.147 21.5116C145.196 22.1287 145.135 22.749 144.966 23.3478L141.992 20.0485L144.15 19.1239Z" fill="#184655"/>
<path d="M145.455 21.2882C145.496 21.6712 145.336 21.9993 145.098 22.0213C144.859 22.0432 144.63 21.753 144.588 21.371C144.546 20.989 144.706 20.6609 144.946 20.6379C145.186 20.615 145.413 20.9062 145.455 21.2882Z" fill="#F48C7F"/>
<path d="M141.028 20.5771C140.961 20.5631 140.967 23.7397 141.959 24.4877C142.952 25.2358 144.679 25.3006 145.185 24.5476C145.743 23.7148 145.213 20.3676 143.737 19.6605C142.26 18.9533 141.028 20.5771 141.028 20.5771Z" fill="#F7A491"/>
<path d="M140.777 18.6073C140.024 19.2237 139.652 19.6735 139.139 20.7696C138.509 22.117 139.76 23.5124 140.809 24.0669C141.858 24.6214 141.944 25.2927 141.944 25.2927L141.987 24.8788C142.009 24.7525 142.004 24.6236 141.974 24.4988C141.937 24.3826 141.887 24.2703 141.825 24.1636C141.736 23.9861 141.449 23.3797 141.337 23.2201C141.042 22.7973 140.984 22.7065 141.129 22.3046C141.237 21.9964 141.112 21.3152 141.285 20.8085L142.697 20.5262C142.697 20.5262 143.581 20.3268 144.027 19.852C145.307 18.4777 142.775 16.9497 140.777 18.6073Z" fill="#184655"/>
<path d="M141.466 22.6526C141.639 23.0007 141.603 23.3597 141.385 23.4505C141.167 23.5413 140.848 23.3378 140.675 22.9887C140.501 22.6396 140.537 22.2816 140.755 22.1908C140.973 22.1001 141.292 22.3035 141.466 22.6526Z" fill="#F7A491"/>
<path d="M131.846 13.8887C132.006 14.5011 132.296 15.4676 132.296 15.4676C132.272 15.7329 132.189 16.839 132.087 18.1934L134.238 17.3955C134.238 17.3955 134.212 15.1873 134.308 15.0527C134.389 14.938 134.523 15.0806 135.183 14.2069C135.373 13.9546 135.409 13.5038 135.409 13.5038C135.409 13.5038 135.448 12.9492 135.314 12.8974C135.251 12.8781 135.182 12.8803 135.12 12.9037C135.058 12.9271 135.007 12.9701 134.976 13.025C134.928 13.1248 134.941 13.3442 134.892 13.4399C134.844 13.5357 134.533 13.6514 134.402 13.6454C134.271 13.6394 134.418 12.0047 134.418 12.0047C134.418 12.0047 134.491 11.5409 134.526 11.3893C134.558 11.2597 134.685 10.8807 134.685 10.8807C134.685 10.8807 134.833 10.3311 134.65 10.2882C134.542 10.2633 134.265 10.7111 134.075 11.1859C133.871 11.6965 133.753 12.2391 133.697 12.2311C133.559 12.2142 133.632 11.3185 133.632 11.3185C133.7 11.122 133.745 10.9194 133.766 10.7141C133.895 10.4767 133.981 10.0359 133.753 10C133.711 9.99302 133.411 10.5525 133.411 10.5525C133.411 10.5525 133.294 10.9465 133.225 11.13C133.105 11.4552 133.086 11.9678 133.023 12.1942C132.97 12.3817 132.923 12.3049 132.901 12.3119C132.88 12.3189 132.913 12.0586 132.948 11.7025C132.946 11.5045 132.962 11.3066 132.996 11.1111C133.043 10.9053 133.074 10.6966 133.087 10.4867C133.125 10.0229 132.81 10.0708 132.701 10.4947C132.659 10.6563 132.616 10.8328 132.572 11.0113C132.404 11.7095 132.409 12.3757 132.328 12.3807C132.221 12.3887 132.292 11.1689 132.292 11.1689C132.292 11.1689 132.132 10.4947 131.969 11.121C131.854 11.561 131.799 12.0128 131.806 12.4655C131.824 12.643 131.685 13.2774 131.846 13.8887Z" fill="#F8A492"/>
<path d="M141.896 26.678C141.896 26.678 139.109 26.5573 138.39 26.2561C137.954 26.0726 134.373 23.3956 134.373 23.3956L134.413 16.2286L131.895 16.051C131.895 16.051 130.589 23.9731 131.041 24.8398C131.508 25.7375 136.75 29.4227 137.799 31.0235C138.403 31.9451 139.662 44.479 139.853 44.5877C141.209 45.243 145.398 45.8972 145.299 45.4993C142.568 34.5253 141.896 26.678 141.896 26.678Z" fill="#3C8F7C"/>
<path d="M91.8874 58.8979C92.0476 59.5093 92.3368 60.4767 92.3368 60.4767C92.3143 60.742 92.2293 61.8481 92.1293 63.2025L94.2796 62.4047C94.2796 62.4047 94.2538 60.1965 94.3495 60.0608C94.4312 59.9471 94.5645 60.0898 95.2246 59.2161C95.4149 58.9637 95.4504 58.5179 95.4504 58.5179C95.4504 58.5179 95.4891 57.9634 95.3558 57.9115C95.2923 57.8922 95.2236 57.8945 95.1617 57.9179C95.0999 57.9412 95.049 57.9842 95.0182 58.0392C94.9698 58.1389 94.9827 58.3583 94.9333 58.4541C94.8838 58.5498 94.5742 58.6655 94.4441 58.6595C94.314 58.6536 94.4602 57.0189 94.4602 57.0189C94.4602 57.0189 94.5333 56.5551 94.5677 56.4035C94.6 56.2738 94.7268 55.8948 94.7268 55.8948C94.7268 55.8948 94.8752 55.3443 94.6914 55.3024C94.5838 55.2775 94.3065 55.7253 94.1162 56.2C93.9119 56.7107 93.7936 57.2533 93.7377 57.2453C93.6012 57.2283 93.6732 56.3327 93.6732 56.3327C93.7413 56.1363 93.786 55.9337 93.8065 55.7283C93.9355 55.4909 94.0216 55.0501 93.7947 55.0142C93.7528 55.0072 93.4528 55.5667 93.4528 55.5667C93.4528 55.5667 93.3356 55.9656 93.2668 56.1442C93.1453 56.4693 93.1271 56.982 93.0647 57.2074C93.012 57.3959 92.9647 57.3191 92.9432 57.3261C92.9217 57.333 92.955 57.0727 92.9884 56.7167C93.0056 56.5371 92.983 56.3297 93.0378 56.1252C93.0843 55.9194 93.1149 55.7108 93.1292 55.5009C93.1668 55.0371 92.8518 55.085 92.7432 55.5089C92.7013 55.6704 92.6583 55.846 92.6142 56.0255C92.4454 56.7236 92.4508 57.3899 92.3691 57.3949C92.2616 57.4019 92.3336 56.1831 92.3336 56.1831C92.3336 56.1831 92.1723 55.5089 92.0111 56.1352C91.8959 56.5752 91.841 57.0269 91.8477 57.4797C91.8649 57.6552 91.7272 58.2865 91.8874 58.8979Z" fill="#F8A492"/>
<path d="M114.678 57.2872C114.518 57.8985 114.228 58.865 114.228 58.865C114.251 59.1313 114.335 60.2364 114.436 61.5918L112.286 60.7939C112.286 60.7939 112.312 58.5857 112.216 58.4501C112.134 58.3364 112.001 58.479 111.341 57.6053C111.15 57.353 111.115 56.9072 111.115 56.9072C111.115 56.9072 111.075 56.3526 111.21 56.3008C111.273 56.281 111.342 56.2831 111.404 56.3065C111.466 56.3299 111.517 56.3732 111.547 56.4284C111.596 56.5282 111.583 56.7466 111.631 56.8423C111.679 56.9381 111.99 57.0538 112.121 57.0478C112.253 57.0418 112.105 55.4071 112.105 55.4071C112.105 55.4071 112.032 54.9443 111.998 54.7927C111.965 54.6631 111.839 54.2841 111.839 54.2841C111.839 54.2841 111.69 53.7335 111.874 53.6916C111.982 53.6667 112.259 54.1135 112.448 54.5893C112.652 55.0999 112.771 55.6415 112.827 55.6345C112.964 55.6176 112.891 54.7209 112.891 54.7209C112.824 54.5264 112.779 54.3258 112.758 54.1225C112.629 53.8851 112.543 53.4443 112.771 53.4074C112.813 53.4014 113.113 53.9609 113.113 53.9609C113.113 53.9609 113.23 54.3539 113.299 54.5384C113.419 54.8636 113.437 55.3762 113.501 55.6016C113.553 55.7901 113.601 55.7123 113.622 55.7203C113.644 55.7283 113.609 55.467 113.576 55.1109C113.578 54.9129 113.561 54.715 113.528 54.5195C113.481 54.3137 113.45 54.105 113.435 53.8951C113.399 53.4313 113.714 53.4792 113.822 53.9031C113.864 54.0647 113.907 54.2402 113.951 54.4197C114.12 55.1179 114.115 55.7831 114.195 55.7891C114.303 55.7961 114.232 54.5773 114.232 54.5773C114.232 54.5773 114.392 53.9031 114.554 54.5284C114.67 54.9641 114.726 55.4114 114.722 55.8599C114.699 56.0414 114.838 56.6758 114.678 57.2872Z" fill="#F8A492"/>
<path d="M101.283 64.4642C101.283 64.4642 102.376 63.3951 103.255 64.6956C103.449 64.598 103.676 64.5721 103.889 64.6232C104.103 64.6743 104.288 64.7985 104.407 64.9709C104.407 64.9709 105.631 64.6298 105.928 66.3263C105.928 66.3263 106.558 66.2166 106.64 66.9108C106.693 67.3169 106.588 67.7273 106.344 68.0677C106.344 68.0677 106.697 68.3141 106.537 68.9514C106.509 69.0999 106.435 69.2378 106.325 69.3487C106.215 69.4597 106.073 69.5392 105.916 69.5777C105.916 69.5777 105.786 70.4923 105.358 70.7676C104.93 71.0429 104.348 70.9102 104.348 70.9102C104.348 70.9102 104.193 71.4089 103.694 71.362C103.196 71.3152 102.578 70.8773 102.019 71.0758C101.46 71.2743 100.012 71.0648 100.012 71.0648C100.012 71.0648 98.3844 70.3926 98.8715 68.8497C98.8715 68.8497 98.0114 68.1335 98.7639 67.2738C98.7639 67.2738 98.2178 65.9294 99.3015 65.1365C100.385 64.3436 101.283 64.4642 101.283 64.4642Z" fill="#07345A"/>
<path d="M108.809 109.244C108.809 109.244 109.999 110.613 110.296 110.781C110.592 110.949 110.164 112.939 109.356 113.07C108.9 113.144 108.648 112.678 108.648 112.678L108.778 112.105L107.077 110.48L108.809 109.244Z" fill="#F7A491"/>
<path d="M102.671 109.582C102.671 109.582 103.663 111.078 103.934 111.284C104.205 111.489 103.504 113.408 102.687 113.441C102.225 113.461 102.042 112.969 102.042 112.969L102.251 112.417L100.787 110.602L102.671 109.582Z" fill="#F7A491"/>
<path d="M103.875 111.225C103.6 111.554 103.306 111.868 102.994 112.167C102.703 112.411 102.397 112.64 102.079 112.852C102.079 112.852 101.496 113.832 101.337 114.175C100.983 114.936 100.584 115.785 100.642 116.211C100.66 116.348 100.992 116.493 101.268 116.41C102.418 116.082 105.359 113.587 105.73 112.919C106.158 112.148 103.875 111.225 103.875 111.225Z" fill="#07345A"/>
<path d="M95.4773 88.3901C95.5848 88.1128 95.6923 87.8555 95.7858 87.6151C97.0083 87.8625 98.3898 88.1347 99.8111 88.413L99.9842 93.2452C99.9842 92.8722 98.9155 100.953 98.9155 100.953C98.9155 100.953 101.678 106.625 103.567 109.929C102.791 110.827 102.428 111.116 101.309 111.724C98.3769 108.464 94.5355 102.498 94.3807 101.505C94.2946 100.941 94.2065 91.7173 95.4773 88.3901Z" fill="#B75742"/>
<path d="M106.398 89.7874C106.025 93.5525 105.194 100.751 105.263 101.33C105.478 102.052 109.168 108.71 109.833 109.683C109.306 110.421 108.487 111.219 107.608 111.439C107.435 111.483 101.335 103.43 101.002 102.791C100.626 102.069 100 98.1274 99.9885 93.2483L99.8154 88.416C102.184 88.8838 104.361 89.3436 106.398 89.7874Z" fill="#F47458"/>
<path d="M98.6231 72.6227L101.41 72.9778C101.41 72.9778 103.644 73.0287 103.921 73.0287C104.199 73.0287 105.948 82.4608 106.454 86.0104C106.961 89.56 106.569 90.1884 106.569 90.1884C106.569 90.1884 103.035 90.9264 100.421 90.711C97.7017 90.4876 94.643 89.1262 94.643 89.1262C94.643 89.1262 96.9663 82.3042 97.4276 80.1748C97.8888 78.0454 98.6231 72.6227 98.6231 72.6227Z" fill="#96D9C9"/>
<path d="M91.8638 61.1969C91.8638 61.1969 91.6853 68.2293 91.9713 68.7669C92.3874 69.5498 97.0674 75.0982 97.0674 75.0982C97.0674 75.0982 94.8311 83.7753 93.8915 86.7754C93.7969 87.0746 93.3776 89.0264 93.3776 89.2169C93.3776 89.6388 95.3558 90.1734 95.5902 90.1415C95.8052 90.1135 97.5254 81.8573 98.6285 77.817C99.0017 76.4481 99.6419 75.1541 100.517 73.9991L101.284 72.9897L95.4042 67.5222C95.4042 67.5222 94.6795 61.4382 94.6795 60.9326C94.6795 60.7999 92.1498 60.7012 91.8638 61.1969Z" fill="#13375B"/>
<path d="M103.82 73.0147L111.152 66.084C111.152 66.084 112.174 59.5303 112.246 59.2839C112.318 59.0376 114.138 58.9099 114.873 58.8441C115.108 58.8222 114.749 65.8257 114.398 66.9976C113.983 68.3839 108.441 74.7013 108.441 74.7013C108.441 74.7013 107.448 78.1232 107.689 80.6336C108.085 84.8016 109.157 90.5355 108.965 90.716C107.774 91.4141 103.2 91.4869 102.911 91.0541C99.7133 86.2797 103.82 73.0147 103.82 73.0147Z" fill="#13375B"/>
<path d="M101.464 71.7181L101.266 73.0795C101.266 73.0795 100.823 75.0413 101.393 75.4193C101.962 75.7973 103.817 73.0256 103.817 73.0256L103.621 69.5757L101.464 71.7181Z" fill="#F7A491"/>
<path d="M103.685 70.6948C103.214 71.8717 102.093 72.5898 101.296 72.8751L101.464 71.7211L103.621 69.5768L103.685 70.6948Z" fill="#F47458"/>
<path d="M106.659 67.2299C106.659 67.7555 106.336 68.1814 105.939 68.1814C105.543 68.1814 105.22 67.7555 105.22 67.2299C105.22 66.7043 105.543 66.2784 105.939 66.2784C106.336 66.2784 106.659 66.7063 106.659 67.2299Z" fill="#07345A"/>
<path d="M103.621 65.7339C104.105 65.7339 104.497 65.4892 104.497 65.1873C104.497 64.8855 104.105 64.6407 103.621 64.6407C103.138 64.6407 102.746 64.8855 102.746 65.1873C102.746 65.4892 103.138 65.7339 103.621 65.7339Z" fill="#07345A"/>
<path d="M102.304 65.9523C102.033 65.8671 101.745 65.8381 101.46 65.8674C101.175 65.8966 100.901 65.9834 100.656 66.1217C100.411 66.2599 100.202 66.4462 100.043 66.6675C99.8845 66.8888 99.7799 67.1397 99.7369 67.4025C99.6441 67.9809 99.5909 68.5642 99.5778 69.1489C99.5466 70.7387 100.438 72.2866 101.213 72.2866C101.988 72.2866 104.143 71.2573 104.223 68.9953C104.269 67.6059 103.518 66.3403 102.304 65.9523Z" fill="#F7A491"/>
<path d="M103.648 69.1788C103.648 69.5289 103.9 69.8131 104.208 69.8131C104.517 69.8131 104.769 69.5289 104.769 69.1788C104.769 68.8287 104.518 68.5435 104.208 68.5435C103.899 68.5435 103.648 68.8257 103.648 69.1788Z" fill="#F7A491"/>
<path d="M98.9317 65.1614C98.1275 65.7518 97.8458 66.6495 98.3027 67.1661C98.7597 67.6827 99.781 67.6229 100.584 67.0315C101.387 66.44 101.67 65.5434 101.214 65.0268C100.758 64.5101 99.7359 64.57 98.9317 65.1614Z" fill="#07345A"/>
<path d="M101.78 66.1109C102.192 66.1109 102.526 65.9028 102.526 65.6461C102.526 65.3894 102.192 65.1813 101.78 65.1813C101.368 65.1813 101.034 65.3894 101.034 65.6461C101.034 65.9028 101.368 66.1109 101.78 66.1109Z" fill="#07345A"/>
<path d="M98.8102 67.6219C98.8117 67.7386 98.8503 67.8522 98.9213 67.9486C98.9922 68.0449 99.0923 68.1196 99.2089 68.1633C99.3255 68.207 99.4535 68.2178 99.5766 68.1942C99.6998 68.1705 99.8127 68.1137 99.9011 68.0307C99.9895 67.9477 100.05 67.8423 100.074 67.7278C100.098 67.6132 100.084 67.4947 100.036 67.387C99.9875 67.2794 99.9058 67.1874 99.8011 67.1227C99.6965 67.058 99.5735 67.0235 99.4477 67.0235C99.278 67.0253 99.1158 67.0892 98.9964 67.2012C98.8771 67.3132 98.8102 67.4644 98.8102 67.6219Z" fill="#07345A"/>
<path d="M110.225 110.73C109.997 111.089 109.748 111.435 109.481 111.769C109.226 112.046 108.954 112.309 108.667 112.557C108.667 112.557 108.224 113.599 108.113 113.954C107.867 114.752 107.589 115.714 107.705 116.13C107.741 116.264 108.058 116.518 108.32 116.36C109.328 115.751 112.022 112.898 112.298 112.19C112.616 111.376 110.225 110.73 110.225 110.73Z" fill="#07345A"/>
<path d="M162.709 81.6748C162.709 81.6748 159.494 82.1346 157.119 84.3318C154.744 86.529 153.325 90.0587 153.325 90.0587L158.188 91.3742C158.188 91.3742 156.245 87.1663 162.709 81.6748Z" fill="#FAE0B2"/>
<path d="M163.599 83.8391L163.251 81.2978L160.798 80.1229C160.735 80.093 160.682 80.0473 160.646 79.9909C160.609 79.9346 160.591 79.87 160.592 79.8043C160.593 79.7387 160.614 79.6747 160.653 79.6196C160.691 79.5645 160.745 79.5205 160.81 79.4926L163.307 78.3955L163.752 75.8671C163.763 75.8022 163.794 75.7415 163.841 75.6919C163.887 75.6424 163.948 75.6059 164.016 75.5867C164.084 75.5675 164.156 75.5663 164.225 75.5832C164.293 75.6002 164.355 75.6346 164.404 75.6826L166.296 77.5487L169.026 77.1607C169.096 77.1509 169.167 77.1593 169.232 77.1851C169.297 77.2109 169.353 77.253 169.394 77.3067C169.434 77.3605 169.458 77.4236 169.462 77.4891C169.466 77.5546 169.45 77.6198 169.416 77.6774L168.087 79.9234L169.329 82.2174C169.359 82.2759 169.371 82.3409 169.364 82.4055C169.357 82.47 169.331 82.5314 169.288 82.583C169.246 82.6346 169.189 82.6743 169.124 82.6978C169.059 82.7213 168.988 82.7276 168.919 82.7161L166.206 82.2383L164.243 84.0406C164.193 84.0868 164.131 84.1192 164.062 84.1341C163.993 84.149 163.921 84.1458 163.854 84.1249C163.787 84.104 163.728 84.0661 163.683 84.0156C163.638 83.9651 163.609 83.904 163.599 83.8391Z" fill="#F7CC7F"/>
<path d="M78.1011 95.2041C78.1011 95.2041 81.3168 95.6639 83.6917 97.8611C86.0667 100.058 87.4848 103.587 87.4848 103.587L82.622 104.903C82.622 104.903 84.5658 100.696 78.1011 95.2041Z" fill="#FAE0B2"/>
<path d="M77.2098 97.3684L77.5581 94.8271L80.0127 93.6522C80.0756 93.6221 80.1282 93.5763 80.1646 93.5199C80.2009 93.4635 80.2195 93.3988 80.2183 93.3331C80.217 93.2675 80.196 93.2034 80.1576 93.1482C80.1192 93.093 80.0649 93.0489 80.0008 93.0209L77.5033 91.9238L77.0571 89.3964C77.0449 89.3327 77.014 89.2734 76.9679 89.2249C76.9217 89.1764 76.8619 89.1407 76.7953 89.1216C76.7286 89.1025 76.6576 89.1009 76.59 89.1168C76.5224 89.1327 76.4608 89.1657 76.4121 89.2119L74.5123 91.082L71.7826 90.693C71.7125 90.683 71.6409 90.6914 71.5757 90.7173C71.5105 90.7431 71.4545 90.7853 71.4138 90.8392C71.3732 90.8931 71.3497 90.9564 71.3459 91.0221C71.3421 91.0877 71.3581 91.153 71.3923 91.2107L72.7233 93.4607L71.4815 95.7487C71.4496 95.8074 71.4359 95.8732 71.4422 95.9387C71.4485 96.0042 71.4744 96.0667 71.5171 96.1193C71.5597 96.1718 71.6173 96.2122 71.6835 96.2359C71.7496 96.2596 71.8215 96.2656 71.8912 96.2533L74.6037 95.7756L76.5669 97.5779C76.6175 97.624 76.681 97.6561 76.7503 97.6704C76.8195 97.6847 76.8917 97.6808 76.9587 97.659C77.0256 97.6372 77.0847 97.5984 77.1291 97.547C77.1734 97.4957 77.2014 97.4338 77.2098 97.3684Z" fill="#F7CC7F"/>
<path d="M184.462 83.895L185.215 82.7161L184.595 81.4734C184.578 81.4415 184.572 81.406 184.577 81.3711C184.581 81.3361 184.597 81.303 184.62 81.2756C184.644 81.2483 184.676 81.2277 184.712 81.2163C184.748 81.2048 184.787 81.203 184.824 81.2111L186.263 81.5103L187.346 80.5787C187.374 80.5547 187.408 80.5384 187.445 80.5317C187.483 80.5249 187.521 80.528 187.557 80.5406C187.592 80.5532 187.623 80.5747 187.646 80.6028C187.669 80.6308 187.683 80.6643 187.687 80.6994L187.824 82.0628L189.114 82.7301C189.148 82.747 189.175 82.7723 189.194 82.803C189.212 82.8338 189.221 82.8688 189.219 82.9039C189.217 82.9391 189.205 82.9731 189.183 83.002C189.161 83.0308 189.131 83.0534 189.096 83.0672L187.741 83.6107L187.455 84.9542C187.448 84.9888 187.431 85.021 187.405 85.0468C187.379 85.0727 187.346 85.0913 187.309 85.1004C187.273 85.1096 187.234 85.109 187.198 85.0986C187.161 85.0883 187.129 85.0686 187.104 85.042L186.129 84.0147L184.662 84.1772C184.625 84.1815 184.587 84.1759 184.552 84.1611C184.518 84.1464 184.489 84.123 184.468 84.0937C184.447 84.0643 184.436 84.0302 184.435 83.9951C184.434 83.96 184.443 83.9253 184.462 83.895Z" fill="#466EB6"/>
<path d="M111.885 30.5797L112.834 29.0926L112.051 27.5248C112.032 27.4845 112.024 27.4399 112.03 27.396C112.036 27.3521 112.055 27.3106 112.085 27.2761C112.115 27.2417 112.154 27.2156 112.199 27.2008C112.244 27.1861 112.293 27.1833 112.34 27.1926L114.158 27.5706L115.524 26.3957C115.559 26.3653 115.603 26.3445 115.65 26.3359C115.697 26.3272 115.745 26.331 115.79 26.3468C115.835 26.3626 115.874 26.3898 115.903 26.4253C115.932 26.4607 115.95 26.503 115.954 26.5473L116.128 28.2678L117.755 29.1106C117.797 29.1322 117.831 29.1642 117.854 29.203C117.877 29.2417 117.888 29.2856 117.885 29.3298C117.883 29.374 117.867 29.4167 117.84 29.453C117.813 29.4893 117.775 29.5179 117.731 29.5355L116.022 30.2206L115.661 31.9162C115.652 31.9597 115.629 31.9999 115.597 32.0324C115.564 32.0648 115.523 32.0882 115.477 32.0998C115.431 32.1114 115.382 32.1109 115.336 32.0981C115.29 32.0854 115.249 32.0611 115.218 32.0279L113.987 30.7313L112.137 30.9378C112.09 30.9432 112.041 30.9362 111.998 30.9175C111.954 30.8987 111.917 30.869 111.891 30.8317C111.865 30.7945 111.85 30.7511 111.849 30.7065C111.848 30.662 111.86 30.618 111.885 30.5797Z" fill="#F79C8D"/>
<path d="M181.536 34.2729L179.031 35.8249L180.432 38.0819L178.036 39.7106L179.089 42.0205L177.511 43.5116L178.324 44.2526L180.435 42.2589L179.437 40.0696L181.929 38.3741L180.551 36.155L182.822 34.7487L181.536 34.2729Z" fill="#F48C7F"/>
<path d="M185.385 71.6622L183.612 69.4032L181.239 70.7935L179.387 68.6392L176.941 69.7084L175.271 68.3061L174.506 69.091L176.74 70.9661L179.058 69.9527L180.984 72.1938L183.318 70.8264L184.925 72.874L185.385 71.6622Z" fill="#F48C7F"/>
<path d="M102.31 24.8608L102.911 22.123L100.204 21.4358L100.667 18.714L98.1673 17.7615L98.1554 15.6721L97.0147 15.677L97.0308 18.4717L99.4004 19.3753L98.9177 22.2058L101.581 22.882L101.036 25.3635L102.31 24.8608Z" fill="#F48C7F"/>
<path d="M78.8849 28.5032L80.032 30.4899L82.5048 30.3613L83.6208 32.6722L86.2097 31.7825L87.5955 34.3448L90.0888 33.7972L91.8563 36.0602L90.9327 36.6806L89.6114 34.9891L86.9806 35.5665L85.6485 33.103L83.0155 34.0086L81.7855 31.4584L79.3697 31.584L78.3064 29.7419L76.7389 30.1319L76.4432 29.1106L78.8849 28.5032Z" fill="#F7CC7F"/>
<path d="M68.2153 44.1888L66.3897 44.3613L65.7672 41.6664L63.0644 41.6125L62.244 39.6667L61.1818 40.0527L62.2806 42.6548L64.8415 42.7057L65.4888 45.5093L68.2368 45.2499L68.2153 44.1888Z" fill="#50BFA5"/>
<path d="M64.9318 73.4017L64.2481 74.9815L61.3871 74.2425L60.0809 76.4387L57.8414 76.2103L57.7167 77.2615L60.712 77.5667L61.9494 75.4862L64.9265 76.2551L65.9543 73.8774L64.9318 73.4017Z" fill="#50BFA5"/>
<path d="M69.7818 55.7303C70.5071 56.3758 71.0097 57.2064 71.2262 58.1169C71.4427 59.0274 71.3633 59.9771 70.998 60.8457C70.6327 61.7144 69.998 62.4631 69.174 62.9971C68.3501 63.5311 67.374 63.8265 66.3691 63.8459C65.3641 63.8653 64.3756 63.6078 63.5285 63.106C62.6813 62.6042 62.0135 61.8807 61.6096 61.0269C61.2057 60.173 61.0838 59.2273 61.2593 58.3092C61.4348 57.3911 61.8999 56.5419 62.5956 55.8689C63.5288 54.9667 64.8101 54.4452 66.1577 54.4192C67.5053 54.3932 68.8089 54.8648 69.7818 55.7303Z" fill="#FFF3D9"/>
<path d="M69.6742 59.6719L67.5111 60.2883L66.8327 62.291C66.8221 62.3287 66.7999 62.3627 66.7687 62.3888C66.7376 62.4149 66.6988 62.432 66.6573 62.438C66.6158 62.4439 66.5733 62.4384 66.5352 62.4222C66.497 62.4061 66.4647 62.3798 66.4424 62.3468L65.1415 60.6294L62.8837 60.6503C62.8426 60.6505 62.8022 60.64 62.7672 60.62C62.7321 60.6001 62.7037 60.5715 62.6852 60.5374C62.6667 60.5033 62.6587 60.4652 62.6623 60.4271C62.6658 60.3891 62.6807 60.3528 62.7053 60.3222L64.0642 58.6446L63.3374 56.6578C63.3245 56.6216 63.3227 56.5828 63.3323 56.5457C63.3418 56.5086 63.3623 56.4747 63.3914 56.4478C63.4205 56.4209 63.4572 56.402 63.4972 56.3933C63.5372 56.3846 63.579 56.3864 63.618 56.3985L65.7586 57.0797L67.5756 55.829C67.6087 55.8064 67.648 55.7928 67.689 55.7898C67.73 55.7867 67.7711 55.7943 67.8077 55.8117C67.8443 55.8291 67.875 55.8556 67.8963 55.8883C67.9176 55.9209 67.9286 55.9584 67.9282 55.9966L67.8917 58.0911L69.7344 59.3089C69.7704 59.3294 69.7989 59.3594 69.8166 59.395C69.8343 59.4305 69.8403 59.4702 69.8339 59.5089C69.8275 59.5476 69.8089 59.5837 69.7805 59.6127C69.7521 59.6417 69.7152 59.6623 69.6742 59.6719Z" fill="#FED333"/>
<path d="M202.56 63.5776C203.285 64.2231 203.788 65.0536 204.004 65.9642C204.221 66.8747 204.141 67.8244 203.776 68.693C203.411 69.5617 202.776 70.3104 201.952 70.8444C201.128 71.3784 200.152 71.6738 199.147 71.6932C198.142 71.7126 197.154 71.4551 196.307 70.9533C195.459 70.4515 194.792 69.728 194.388 68.8741C193.984 68.0203 193.862 67.0746 194.038 66.1565C194.213 65.2384 194.678 64.3892 195.374 63.7162C196.307 62.814 197.588 62.2925 198.936 62.2665C200.284 62.2405 201.587 62.7121 202.56 63.5776Z" fill="#FFF3D9"/>
<path d="M202.444 67.5192L200.282 68.1355L199.603 70.1383C199.591 70.1745 199.567 70.2068 199.536 70.2315C199.505 70.2563 199.467 70.2724 199.426 70.2782C199.386 70.284 199.344 70.2792 199.306 70.2644C199.268 70.2495 199.236 70.2252 199.212 70.1941L197.912 68.4766L195.654 68.4966C195.612 68.4991 195.571 68.49 195.534 68.4707C195.498 68.4513 195.468 68.4224 195.449 68.3876C195.43 68.3528 195.422 68.3135 195.427 68.2748C195.432 68.236 195.449 68.1994 195.476 68.1694L196.834 66.4919L196.115 64.4971C196.101 64.4609 196.099 64.4219 196.108 64.3846C196.118 64.3473 196.138 64.3132 196.168 64.2862C196.197 64.2592 196.234 64.2403 196.274 64.2318C196.314 64.2232 196.356 64.2253 196.395 64.2378L198.536 64.918L200.353 63.6683C200.385 63.6435 200.425 63.6279 200.467 63.6237C200.508 63.6195 200.551 63.6268 200.588 63.6446C200.625 63.6624 200.656 63.6901 200.677 63.7241C200.698 63.7581 200.707 63.7969 200.704 63.8359L200.669 65.9304L202.512 67.1481C202.55 67.1682 202.582 67.1989 202.601 67.2361C202.62 67.2733 202.627 67.3152 202.619 67.3559C202.612 67.3966 202.591 67.4342 202.56 67.4634C202.528 67.4927 202.488 67.5122 202.444 67.5192Z" fill="#FED333"/>
<path d="M179.619 57.6622L180.507 59.0316C180.528 59.065 180.56 59.0922 180.597 59.11C180.634 59.1278 180.676 59.1356 180.718 59.1324C180.76 59.1291 180.8 59.1151 180.834 59.0918C180.868 59.0685 180.894 59.0369 180.909 59.0006L181.54 57.5136L183.218 57.1565C183.259 57.1478 183.297 57.1286 183.326 57.1011C183.356 57.0737 183.377 57.0391 183.387 57.0012C183.396 56.9633 183.394 56.9237 183.381 56.8868C183.368 56.8499 183.343 56.8172 183.311 56.7925L181.982 55.7761L182.13 54.1804C182.134 54.1416 182.126 54.1026 182.107 54.0679C182.088 54.0332 182.059 54.0041 182.023 53.984C181.987 53.9638 181.946 53.9534 181.904 53.9539C181.862 53.9544 181.821 53.9659 181.785 53.9869L180.333 54.8456L178.746 54.2223C178.707 54.207 178.665 54.2021 178.623 54.2081C178.582 54.2142 178.543 54.2308 178.511 54.2563C178.479 54.2817 178.456 54.3149 178.443 54.3521C178.431 54.3892 178.43 54.4289 178.441 54.4666L178.871 56.0145L177.742 57.2213C177.714 57.2507 177.696 57.2866 177.689 57.3251C177.683 57.3636 177.688 57.403 177.704 57.4389C177.72 57.4748 177.747 57.5058 177.781 57.5284C177.815 57.5509 177.856 57.5641 177.898 57.5664L179.619 57.6622Z" fill="#F47458"/>
<path d="M176.5 89.0245C176.501 89.2136 176.442 89.3987 176.33 89.5566C176.217 89.7144 176.057 89.8378 175.869 89.9112C175.681 89.9845 175.474 90.0044 175.274 89.9685C175.074 89.9325 174.89 89.8423 174.745 89.7092C174.6 89.5761 174.501 89.4062 174.461 89.2209C174.42 89.0356 174.44 88.8432 174.517 88.6683C174.594 88.4933 174.726 88.3435 174.895 88.2379C175.064 88.1323 175.263 88.0756 175.467 88.075C175.739 88.0742 176.001 88.1737 176.195 88.3516C176.389 88.5296 176.498 88.7716 176.5 89.0245Z" fill="#50BFA5"/>
<path d="M55.9965 60.0708C55.9965 60.5984 55.4965 61.0263 54.8805 61.0263C54.2644 61.0263 53.7623 60.5984 53.7623 60.0708C53.7623 59.5432 54.2612 59.1154 54.8773 59.1154C55.4933 59.1154 55.9965 59.5432 55.9965 60.0708Z" fill="#50BFA5"/>
<path d="M114.322 14.3804L115.675 14.6278C115.675 14.6278 117.65 13.772 117.8 13.3591C117.951 12.9462 117.882 11.9957 118.171 11.9359C118.285 11.9086 118.403 11.9025 118.52 11.9178C118.636 11.9332 118.748 11.9697 118.85 12.0253C118.951 12.0809 119.039 12.1545 119.11 12.2418C119.18 12.3292 119.231 12.4286 119.26 12.5343C119.421 12.9921 118.862 14.4293 118.997 14.5649C119.082 14.6467 119.857 14.8093 120.42 14.92C120.604 14.9565 120.773 15.0394 120.909 15.1594C121.045 15.2794 121.143 15.432 121.191 15.6002C121.225 15.714 121.217 15.8353 121.167 15.944C121.117 16.0528 121.029 16.1426 120.917 16.1986L120.561 16.3752L120.729 16.7193C120.788 16.8429 120.794 16.983 120.744 17.1103C120.694 17.2375 120.593 17.3419 120.462 17.4015L120.185 17.5241L120.307 17.7316C120.344 17.7949 120.366 17.8646 120.373 17.9364C120.379 18.0081 120.369 18.0803 120.344 18.1483C120.319 18.2163 120.279 18.2788 120.226 18.3317C120.173 18.3846 120.11 18.4268 120.039 18.4557L119.796 18.5554L119.814 18.6163C119.852 18.7389 119.84 18.8704 119.781 18.9855C119.722 19.1007 119.618 19.1915 119.491 19.2406L119.248 19.3304L115.646 18.6581C115.308 18.5965 114.988 18.4701 114.706 18.2871L113.481 17.8602C113.417 17.8372 113.364 17.7936 113.332 17.7375C113.3 17.6813 113.29 17.6162 113.305 17.5541L113.989 14.5869C114.004 14.519 114.048 14.4593 114.11 14.4208C114.172 14.3822 114.249 14.3677 114.322 14.3804Z" fill="#96D9C9"/>
</g>
</g>
<defs>
<clipPath id="clip0_2419_46521">
<rect width="245" height="142" fill="white"/>
</clipPath>
<clipPath id="clip1_2419_46521">
<rect width="204" height="147" fill="white" transform="translate(21 10)"/>
</clipPath>
</defs>
</svg>
