<svg width="206" height="125" viewBox="0 0 206 125" fill="none" xmlns="http://www.w3.org/2000/svg">
<g clip-path="url(#clip0_2419_48169)">
<path opacity="0.2" d="M72.9181 21.1342C72.9181 21.1342 87.493 -8.27198 127.273 2.72857C172.009 15.0983 134.623 51.3874 177.292 55.167C219.962 58.9465 210.176 115.988 179.746 117.297C120.104 119.858 48.1298 121.053 21.8066 117.786C-14.6416 113.26 -16.9884 82.2867 4.30567 73.4186C25.6034 64.5506 14.9619 52.8972 31.6215 37.9431C54.4985 17.4049 67.4867 40.7451 72.9181 21.1376V21.1342Z" fill="url(#paint0_linear_2419_48169)"/>
<path d="M178.797 53.6054C178.797 53.6054 174.171 56.3775 171.94 60.2939C169.219 65.0662 173.901 72.0265 169.962 75.9664C166.026 79.9064 158.864 82.0307 157.961 88.4675C157.057 94.9043 163.413 101.536 156.108 105.701C148.803 109.865 164.492 118.917 164.492 118.917C164.492 118.917 177.379 111.503 179.396 105.113C181.41 98.7235 178.678 93.28 181.511 90.6053C184.341 87.9306 190.483 82.9939 187.759 75.2415C186.249 70.9492 184.502 66.0495 188.673 59.2435C192.843 52.4375 185.426 47.8398 178.797 53.6088V53.6054Z" fill="#9FC3F9"/>
<path d="M167.707 109.966L167.465 109.818C167.465 109.818 168.228 108.657 168.684 106.717C169.104 104.929 169.349 102.083 168.134 98.6798C166.068 92.9007 169.598 89.934 173.334 86.7962C176.714 83.9536 180.212 81.0171 179.357 75.7482C177.477 64.123 181.056 62.2034 181.21 62.1262L181.34 62.3712C181.34 62.3712 180.447 62.8444 179.795 64.707C179.189 66.4387 178.675 69.7511 179.638 75.708C180.513 81.1245 176.959 84.1147 173.52 87.0042C169.857 90.0817 166.397 92.988 168.404 98.5925C169.643 102.063 169.391 104.969 168.96 106.795C168.491 108.778 167.738 109.919 167.707 109.969V109.966Z" fill="white"/>
<path d="M174.01 86.5714L173.929 86.3096C173.978 86.2962 178.741 84.9571 181.171 82.1683C183.602 79.3794 184.004 75.6442 184.008 75.6073L184.292 75.6341C184.288 75.6711 183.878 79.4902 181.392 82.3428C178.906 85.1954 174.059 86.5579 174.01 86.5714Z" fill="white"/>
<path d="M175.834 84.8094C173.236 82.7187 173.877 80.4802 174.619 77.886C175.264 75.6375 175.992 73.0903 174.602 70.1806L174.861 70.0665C176.297 73.0668 175.551 75.6643 174.892 77.9598C174.175 80.4601 173.558 82.6213 176.013 84.598L175.827 84.8061L175.834 84.8094Z" fill="white"/>
<path d="M167.601 95.0654C165.115 93.0753 164.909 88.7528 167.15 85.625C169.38 82.5173 169.048 80.3762 169.044 80.3561L169.328 80.3124C169.342 80.4031 169.682 82.5811 167.388 85.7794C165.227 88.7964 165.409 92.9511 167.787 94.854L167.605 95.0654H167.601Z" fill="white"/>
<path d="M169.177 105.237L169.02 105.009C170.96 103.784 173.32 99.2168 173.341 95.3842C173.348 93.9948 174.224 92.6424 175.876 91.4711C177.109 90.5986 178.321 90.1388 178.373 90.1187L178.478 90.3737C178.429 90.3905 173.646 92.2262 173.632 95.3842C173.614 98.5825 171.625 103.69 169.184 105.234L169.177 105.237Z" fill="white"/>
<path d="M25.7461 54.8371C25.7461 54.8371 30.7153 56.995 33.4713 60.5893C36.8297 64.9722 33.1597 72.4695 37.6071 75.8691C42.0545 79.2721 49.4471 80.4635 51.2365 86.7291C53.026 92.9914 47.6471 100.378 55.4668 103.573C63.2866 106.768 48.9918 117.742 48.9918 117.742C48.9918 117.742 35.1908 112.04 32.3052 105.962C29.4196 99.8847 31.3702 94.1426 28.1939 91.8504C25.0177 89.5583 18.245 85.4505 19.8664 77.4196C20.7664 72.9763 21.817 67.8953 16.7357 61.68C11.6579 55.468 18.3676 49.9642 25.7426 54.8371H25.7461Z" fill="#9FC3F9"/>
<path d="M44.5724 109.281L44.7895 109.104C44.7895 109.104 43.872 108.05 43.1506 106.187C42.4853 104.469 41.8444 101.68 42.5798 98.1496C43.823 92.1591 39.9148 89.6689 35.7756 87.0345C32.0285 84.6484 28.1554 82.1851 28.271 76.8524C28.5196 65.0896 24.706 63.6432 24.5415 63.5895L24.4469 63.8479C24.4469 63.8479 25.3959 64.2036 26.2994 65.9655C27.1399 67.6033 28.1134 70.8217 27.9838 76.849C27.8683 82.3294 31.8079 84.8397 35.618 87.2627C39.6767 89.8468 43.5078 92.2866 42.2997 98.0959C41.5537 101.693 42.2086 104.539 42.888 106.295C43.6269 108.197 44.5339 109.238 44.5724 109.281Z" fill="white"/>
<path d="M35.0752 86.9003L35.1172 86.6284C35.0682 86.6217 30.162 85.9002 27.3675 83.447C24.5695 80.9937 23.6555 77.3424 23.645 77.3055L23.3648 77.3692C23.3753 77.4062 24.3103 81.138 27.1714 83.6483C30.0324 86.1586 35.0227 86.8902 35.0752 86.9003Z" fill="white"/>
<path d="M33.023 85.3867C35.3063 82.9838 34.3608 80.846 33.2647 78.3727C32.3122 76.2282 31.2371 73.7951 32.2106 70.7344L31.9375 70.6539C30.9324 73.8119 32.032 76.292 33.002 78.4801C34.0596 80.8662 34.9736 82.9301 32.8129 85.2021L33.023 85.3867Z" fill="white"/>
<path d="M42.6044 94.5016C44.7931 92.2128 44.3974 87.9037 41.7394 85.088C39.099 82.2925 39.1305 80.1279 39.1305 80.1077L38.8433 80.101C38.8433 80.195 38.8083 82.3965 41.5258 85.2726C44.0892 87.9876 44.4849 92.1289 42.3908 94.317L42.6009 94.5016H42.6044Z" fill="white"/>
<path d="M42.4572 104.781L42.5833 104.536C40.4891 103.569 37.516 99.3443 36.9627 95.5487C36.7631 94.1727 35.7055 92.9444 33.909 91.9947C32.5643 91.2865 31.3001 90.9845 31.2476 90.9744L31.181 91.2396C31.2301 91.253 36.2273 92.4578 36.6825 95.5856C37.1448 98.7536 39.8238 103.563 42.4607 104.781H42.4572Z" fill="white"/>
<path d="M44.1206 42.1379C44.1206 42.1379 41.2035 46.5578 40.9584 51.0112C40.6607 56.4412 48.0253 60.7738 46.2568 65.9588C44.4883 71.1439 38.9938 76.0302 41.088 82.2052C43.1821 88.3803 51.9054 91.7228 47.2023 98.5087C42.4992 105.295 60.7302 106.942 60.7302 106.942C60.7302 106.942 68.9982 94.9144 67.9266 88.3165C66.855 81.7186 61.9349 77.9465 63.2761 74.3589C64.6173 70.7713 67.9266 63.7741 61.9699 57.9179C58.6711 54.676 54.882 50.981 55.5684 43.1179C56.2548 35.2514 47.4895 34.1842 44.1206 42.1379Z" fill="#76C5CA"/>
<path d="M59.5781 97.5489L59.2945 97.5153C59.2945 97.5153 59.4591 96.1528 58.9933 94.2164C58.5661 92.431 57.5015 89.763 54.8645 87.199C50.3926 82.8462 52.2346 78.7083 54.1817 74.3287C55.9466 70.3653 57.7711 66.2642 54.6229 61.8712C47.6751 52.1724 50.0354 48.9574 50.1405 48.8231L50.3681 48.9876C50.3681 48.9876 49.7763 49.7829 50.0319 51.7328C50.27 53.5417 51.2996 56.7433 54.8575 61.7135C58.0933 66.234 56.2408 70.4022 54.4443 74.4328C52.5323 78.7251 50.7288 82.7825 55.0677 87.0043C57.7536 89.6186 58.8357 92.3437 59.2735 94.166C59.7462 96.1461 59.5851 97.4918 59.5781 97.5455V97.5489Z" fill="white"/>
<path d="M54.693 73.8454L54.5039 73.6407C54.5424 73.6105 58.2299 70.4257 59.1615 66.9019C60.093 63.3781 58.7692 59.8476 58.7552 59.8106L59.0249 59.7167C59.0389 59.7536 60.3941 63.3646 59.4416 66.969C58.4891 70.5733 54.735 73.8119 54.7 73.8421L54.693 73.8454Z" fill="white"/>
<path d="M55.5403 71.4996C52.2555 70.6941 51.8212 68.4087 51.3204 65.7642C50.8862 63.472 50.3924 60.8711 47.8255 58.824L48.0076 58.6125C50.6551 60.7235 51.1594 63.3747 51.6041 65.7138C52.0874 68.2644 52.5076 70.4693 55.6138 71.2345L55.5438 71.4996H55.5403Z" fill="white"/>
<path d="M52.753 84.1618C49.6118 83.4 47.4721 79.5909 48.0814 75.8389C48.6873 72.1104 47.4196 70.3217 47.4091 70.3049L47.6437 70.1472C47.6997 70.2243 48.9884 72.0466 48.3651 75.8826C47.7803 79.5003 49.8219 83.1684 52.823 83.8967L52.753 84.1618Z" fill="white"/>
<path d="M58.7691 92.6726L58.524 92.5316C59.7181 90.6221 59.7847 85.5276 58.0722 82.0643C57.4524 80.8091 57.631 79.2251 58.5905 77.4867C59.3084 76.1879 60.1909 75.2717 60.2294 75.2314L60.4395 75.4194C60.4045 75.4563 56.9201 79.0942 58.3314 81.9468C59.7602 84.8363 60.2749 90.2663 58.7691 92.6726Z" fill="white"/>
<path d="M145.795 32.2714C145.795 32.2714 142.153 36.6644 141.362 41.3896C140.395 47.1485 147.732 52.5819 145.224 57.9179C142.717 63.254 136.27 67.8651 137.765 74.6845C139.261 81.5039 148.166 86.0278 142.339 92.7498C136.508 99.4719 155.762 103.234 155.762 103.234C155.762 103.234 166.022 91.3101 165.668 84.1518C165.315 76.9968 160.517 72.4293 162.377 68.7511C164.24 65.0729 168.603 57.9683 162.948 51.0683C159.817 47.2458 156.217 42.8898 157.887 34.5736C159.561 26.2574 150.337 24.1566 145.792 32.268L145.795 32.2714Z" fill="#76C5CA"/>
<path d="M155.66 93.082L155.362 93.0149C155.362 93.0149 155.699 91.5786 155.436 89.4609C155.194 87.5077 154.378 84.5444 151.871 81.5206C147.62 76.386 150.081 72.1742 152.683 67.714C155.04 63.6801 157.478 59.5053 154.641 54.4713C148.39 43.3596 151.293 40.1881 151.419 40.0606L151.643 40.262C151.643 40.262 150.918 41.0473 150.957 43.1548C150.992 45.1114 151.71 48.6419 154.911 54.3337C157.824 59.512 155.345 63.754 152.95 67.8584C150.397 72.2279 147.987 76.3591 152.109 81.3394C154.662 84.4236 155.492 87.4473 155.741 89.4408C156.007 91.6054 155.674 93.0216 155.66 93.082Z" fill="white"/>
<path d="M153.282 67.2577L153.104 67.0194C153.146 66.9892 157.46 63.999 158.878 60.3443C160.293 56.6896 159.302 52.7732 159.291 52.7362L159.589 52.6658C159.6 52.706 160.615 56.7098 159.165 60.4483C157.719 64.1869 153.328 67.2308 153.282 67.261V67.2577Z" fill="white"/>
<path d="M154.47 64.8481C151.062 63.6265 150.873 61.143 150.652 58.2636C150.463 55.7701 150.246 52.941 147.753 50.4777L147.973 50.2729C150.547 52.8134 150.764 55.6996 150.961 58.2434C151.171 61.0189 151.353 63.415 154.578 64.5729L154.47 64.8481Z" fill="white"/>
<path d="M149.98 78.0505C146.72 76.8927 144.895 72.5936 145.991 68.6604C147.084 64.7507 145.946 62.7001 145.935 62.68L146.205 62.5391C146.254 62.6263 147.409 64.7137 146.289 68.7342C145.231 72.5265 146.972 76.6678 150.088 77.7753L149.983 78.0505H149.98Z" fill="white"/>
<path d="M155.38 87.7963L155.135 87.6184C156.637 85.7122 157.316 80.2822 155.905 76.3993C155.394 74.9898 155.772 73.3219 157.005 71.5734C157.926 70.2646 158.98 69.3853 159.022 69.3484L159.222 69.5699C159.179 69.6034 155.03 73.1038 156.192 76.302C157.372 79.5439 157.271 85.3934 155.376 87.793L155.38 87.7963Z" fill="white"/>
<path d="M126.692 120.87H206C206 120.87 201.353 108.956 188.49 105.499C175.022 101.881 176.052 119.138 157.758 107.184C135.678 92.7565 126.689 120.87 126.689 120.87H126.692Z" fill="url(#paint1_linear_2419_48169)"/>
<path d="M7.23151 120.87H78.639C78.639 120.87 70.8893 97.7502 57.631 96.381C36.0137 94.1492 38.6962 115.561 26.4395 111.644C15.1388 108.033 7.23501 120.87 7.23501 120.87H7.23151Z" fill="url(#paint2_linear_2419_48169)"/>
<path d="M189.468 120.87H118.06C118.06 120.87 125.81 97.7502 139.068 96.381C160.685 94.1492 158.003 115.561 170.26 111.644C181.56 108.033 189.464 120.87 189.464 120.87H189.468Z" fill="url(#paint3_linear_2419_48169)"/>
<path d="M41.918 120.87H100.235C100.235 120.87 93.5922 101.056 82.2285 99.8813C63.6998 97.9684 61.5042 111.983 52.0875 111.235C42.6709 110.486 41.918 120.87 41.918 120.87Z" fill="#46909B"/>
<path d="M113.945 2.98349L113.28 4.49705C113.28 4.49705 111.742 4.83936 111.904 4.99038C112.065 5.1414 113.238 5.33269 113.318 5.5609C113.399 5.7891 113.924 6.88652 114.008 6.88652C114.253 6.88652 114.569 5.62802 114.887 5.52063C115.055 5.46357 116.018 5.03065 116.043 4.96353C116.067 4.89641 114.702 4.41986 114.702 4.41986C114.702 4.41986 113.973 2.7922 113.949 2.98013L113.945 2.98349Z" fill="white"/>
<path d="M100.999 11.4574L100.333 12.9709C100.333 12.9709 98.796 13.3132 98.9571 13.4643C99.1181 13.6153 100.291 13.8066 100.372 14.0348C100.452 14.263 100.978 15.3604 101.062 15.3604C101.307 15.3604 101.622 14.1019 101.941 13.9945C102.109 13.9375 103.072 13.5045 103.096 13.4374C103.121 13.3703 101.755 12.8937 101.755 12.8937C101.755 12.8937 101.027 11.2661 101.002 11.454L100.999 11.4574Z" fill="white"/>
<path d="M130.544 10.9171L129.879 12.4307C129.879 12.4307 128.342 12.773 128.503 12.924C128.664 13.0751 129.837 13.2663 129.917 13.4946C129.998 13.7228 130.523 14.8202 130.607 14.8202C130.852 14.8202 131.168 13.5617 131.486 13.4543C131.654 13.3972 132.617 12.9643 132.642 12.8972C132.666 12.8301 131.301 12.3535 131.301 12.3535C131.301 12.3535 130.572 10.7259 130.548 10.9138L130.544 10.9171Z" fill="white"/>
<path d="M130.856 43.6147C130.856 43.6147 127.946 37.2718 132.779 35.9227C137.611 34.5736 125.964 31.4559 133.819 26.244C141.673 21.0355 145.564 30.1839 142.062 31.8083C138.56 33.4326 143.946 34.9327 140.829 37.9732C137.713 41.0104 133.066 38.3894 133.09 40.4667C133.115 42.5441 131.665 44.9873 130.853 43.618L130.856 43.6147Z" fill="url(#paint4_linear_2419_48169)"/>
<path d="M83.4506 47.4506C83.4506 47.4506 87.8455 45.7357 88.0906 44.6416C88.3358 43.5476 85.8354 38.7351 83.9514 38.4901C82.0673 38.2451 78.0786 42.8462 83.4506 47.4472V47.4506Z" fill="#46909B"/>
<path d="M82.0708 86.5077C82.0708 86.5077 81.7592 90.0953 82.9988 90.5785C84.2385 91.0618 89.4494 90.2765 89.0537 89.7865C88.6579 89.2966 85.8879 88.4676 85.5097 87.4608C85.1315 86.454 85.4257 85.6855 84.6027 85.86C83.7798 86.0345 82.0743 86.5077 82.0743 86.5077H82.0708Z" fill="#261E35"/>
<path d="M84.988 88.4877L84.876 88.2595C84.9005 88.2495 85.4678 87.9911 86.0596 87.8602L86.1191 88.1052C85.5553 88.2327 84.995 88.4844 84.988 88.4877Z" fill="white"/>
<path d="M85.8915 89.0516L85.7514 88.8402C85.7724 88.8268 86.3047 88.5046 86.8755 88.3066L86.9666 88.5449C86.4238 88.7328 85.8985 89.0516 85.8915 89.055V89.0516Z" fill="white"/>
<path d="M86.6128 89.4811L86.4727 89.2697C86.4937 89.2563 87.026 88.9341 87.5968 88.7361L87.6879 88.9744C87.1451 89.1656 86.6198 89.4811 86.6128 89.4845V89.4811Z" fill="white"/>
<path d="M52.6933 71.4426C52.6933 71.4426 48.9427 71.2413 48.4734 72.4427C48.0042 73.6408 48.9672 78.6144 49.4645 78.2184C49.9618 77.8224 50.7532 75.151 51.7933 74.7583C52.8333 74.3657 53.6423 74.6308 53.4357 73.8455C53.229 73.0602 52.6933 71.4426 52.6933 71.4426Z" fill="#261E35"/>
<path d="M51.1385 75.359C50.9914 74.822 50.7113 74.2918 50.7078 74.2851L50.9424 74.171C50.9529 74.1945 51.2401 74.7314 51.3941 75.2919L51.1385 75.3556V75.359Z" fill="white"/>
<path d="M50.7077 76.188C50.4941 75.6711 50.1509 75.1778 50.1474 75.1711L50.3645 75.0302C50.3785 75.0503 50.7287 75.5537 50.9528 76.094L50.7077 76.188Z" fill="white"/>
<path d="M50.2806 76.8894C50.067 76.3726 49.7238 75.8792 49.7203 75.8759L49.9374 75.7349C49.9514 75.7551 50.3016 76.2585 50.5257 76.7988L50.2806 76.8927V76.8894Z" fill="white"/>
<path d="M79.5565 87.2561C79.5565 87.2561 86.7074 87.4608 87.5198 86.8399C88.3323 86.2191 88.6614 73.124 88.2237 70.9292C86.4868 62.1935 84.0985 55.0184 82.9603 55.0184C81.8222 55.0184 65.7589 54.2398 64.6208 55.3305C63.4827 56.4212 63.4267 65.2105 62.4496 65.8347C61.4726 66.459 51.7058 68.2779 51.7058 69.372C51.7058 70.466 53.6038 76.5471 54.0941 76.8592C54.5843 77.1713 68.7986 75.3524 70.2624 73.9462C71.7262 72.5434 75.3612 65.2105 75.3612 65.2105C75.3612 65.2105 77.4238 71.0869 77.9106 72.3353C78.3973 73.5837 78.2503 87.5716 79.5495 87.2594L79.5565 87.2561Z" fill="#F3D995"/>
<path d="M73.1444 36.7214C73.1444 36.7214 80.8241 37.0536 83.9513 38.4934C88.4057 40.5439 86.3431 56.0855 85.4746 58.8005C85.0929 59.9986 63.6297 57.4547 63.5947 56.2701C63.4021 49.8266 65.9795 40.4197 66.7569 38.9531C67.5343 37.4866 70.4619 36.3321 73.1444 36.7214Z" fill="#76C5CA"/>
<path d="M74.0899 33.3352C74.0899 33.3352 72.7067 33.6473 72.2584 31.7746C71.8102 29.902 72.7067 29.7074 71.4845 29.0831C70.2623 28.4589 71.2954 25.6768 72.8677 25.6902C73.8133 25.7003 72.1113 24.6599 74.7027 23.2638C76.4362 22.3309 78.1696 22.5524 78.6809 23.7505C79.0626 24.6431 79.1502 22.747 81.3879 22.9786C83.6256 23.2101 84.5851 25.415 84.2209 26.0762C83.8567 26.7373 84.8723 26.6232 85.5622 27.7542C86.2521 28.8851 84.5046 30.6 84.2209 30.4457C83.9373 30.2913 85.5622 31.4592 84.1789 32.7479C82.7957 34.0366 81.8992 34.6977 80.2323 33.8789C78.5654 33.06 75.9985 32.513 74.0864 33.3318L74.0899 33.3352Z" fill="#B94D59"/>
<path d="M79.4338 31.5934C79.5073 31.5095 80.8871 29.7141 81.6155 30.5296C82.3474 31.3451 82.5575 33.1204 80.7295 33.5903C78.9015 34.0601 78.9505 32.1304 79.4338 31.5934Z" fill="#DDA08A"/>
<path d="M80.6839 28.4992C80.6839 28.4992 79.0976 26.7205 76.6497 26.9118C74.1984 27.1031 72.8992 30.2779 73.5961 32.5901C74.2929 34.9024 77.5497 33.6372 75.319 36.9563C74.2544 38.5403 75.249 40.3559 77.4517 40.168C78.138 40.1076 78.4007 39.4834 78.6353 38.0369C78.8699 36.5905 83.1913 30.4222 80.6839 28.4992Z" fill="#DDA08A"/>
<path d="M76.254 32.5197C76.0054 32.4056 75.4206 32.117 75.3541 31.8955C75.3365 31.8418 75.3436 31.7848 75.3751 31.7411L76.2751 30.3652L76.4992 30.4994L75.6202 31.8452C75.6902 31.9358 76.0229 32.1371 76.3696 32.2949L76.2575 32.5231L76.254 32.5197Z" fill="#261E35"/>
<path d="M76.3592 33.3889C76.1246 33.3889 75.8829 33.2748 75.6378 33.0432L75.8234 32.8654C76.044 33.0734 76.2506 33.164 76.4397 33.1305C76.7549 33.0734 76.9475 32.6808 76.9475 32.6774L77.1856 32.7815C77.1751 32.8016 76.9405 33.2983 76.4852 33.3788C76.4432 33.3855 76.4012 33.3889 76.3557 33.3889H76.3592Z" fill="#261E35"/>
<path d="M78.0575 31.2276C78.2818 31.2276 78.4637 31.0533 78.4637 30.8383C78.4637 30.6233 78.2818 30.449 78.0575 30.449C77.8331 30.449 77.6513 30.6233 77.6513 30.8383C77.6513 31.0533 77.8331 31.2276 78.0575 31.2276Z" fill="#261E35"/>
<path d="M74.8673 30.7276C75.0917 30.7276 75.2735 30.5533 75.2735 30.3383C75.2735 30.1233 75.0917 29.949 74.8673 29.949C74.643 29.949 74.4611 30.1233 74.4611 30.3383C74.4611 30.5533 74.643 30.7276 74.8673 30.7276Z" fill="#261E35"/>
<path d="M79.4023 27.0964C79.4023 27.0964 78.982 28.8381 79.8505 29.4791C80.719 30.1201 80.7295 29.9288 80.4388 30.7947C80.1482 31.6572 79.777 32.2378 80.3968 31.976C81.0166 31.7142 81.1357 30.3651 81.752 30.7779C82.3684 31.1907 82.0147 32.7814 81.8746 33.1338C81.7345 33.4862 83.0933 32.2378 82.7816 30.1805C82.4699 28.1199 80.775 26.9453 79.3987 27.0964H79.4023Z" fill="#B94D59"/>
<path d="M94.4361 41.1345C94.4361 41.1345 93.8653 51.3535 92.5626 51.9744C91.2599 52.5952 88.7385 51.9744 88.0871 51.3502C87.4358 50.726 93.6202 40.2754 94.4361 41.1312V41.1345Z" fill="#DDA08A"/>
<path d="M72.6822 66.026C72.6822 66.026 78.3553 71.3587 80.0152 69.6471C81.6751 67.9356 93.8092 40.356 94.4081 37.4128C95.0069 34.4695 93.424 33.003 92.1458 32.6607C90.8676 32.3183 88.861 31.3954 86.7634 34.8857C84.6693 38.3759 72.1779 67.1536 72.6822 66.026Z" fill="#786992"/>
<path d="M88.679 33.1641C88.679 33.1641 75.6764 62.9989 75.6308 63.6768C75.5853 64.3547 77.3643 64.5259 77.3643 64.5259C77.3643 64.5259 90.4369 35.1877 90.8361 34.1742C91.2354 33.1607 89.4109 31.5599 88.679 33.1641Z" fill="#685C7E"/>
<path d="M92.3523 34.7314C92.3523 34.7314 79.0695 64.7978 79.024 65.4757C78.9785 66.1536 80.6209 66.3549 80.6209 66.3549C80.6209 66.3549 94.1067 36.7517 94.5095 35.7415C94.9087 34.7314 93.0842 33.1272 92.3523 34.7314Z" fill="#685C7E"/>
<path d="M93.9283 39.2955C93.9283 39.2955 96.4077 31.325 94.1629 28.6939C93.0143 27.3515 86.7109 34.0869 86.1155 35.9462C86.049 36.1542 87.2081 35.4461 87.919 34.7347C88.1326 34.5199 87.3447 36.2851 87.1801 37.3523C87.0155 38.4195 89.4984 35.5099 89.4984 35.5099C89.4984 35.5099 88.84 38.0638 89.3128 38.4061C89.7855 38.7484 91.3579 35.8488 91.5365 36.0536C91.624 36.1576 90.6435 42.4434 93.319 37.1711C93.8197 36.1811 93.319 41.1647 93.9283 39.2921V39.2955Z" fill="white"/>
<path d="M95.1014 33.6507L89.6594 31.2008C89.6594 31.2008 94.0333 27.0327 94.8107 27.3616C96.5442 28.0999 95.1014 33.6507 95.1014 33.6507Z" fill="#261E35"/>
<path d="M81.7311 66.6267C81.7311 66.6267 74.279 62.6734 74.0584 62.962C73.8378 63.2506 70.8716 69.6706 71.0467 69.882C71.2218 70.0935 78.2782 73.7314 78.6669 73.2649C79.0556 72.7984 81.7311 66.6301 81.7311 66.6301V66.6267Z" fill="#B94D59"/>
<path d="M82.0252 66.0462C82.0252 66.0462 74.265 62.5493 74.1529 62.5996C74.0409 62.6499 73.1269 64.244 73.337 64.3749C73.5471 64.5058 80.9677 67.9759 81.1813 67.8987C81.3949 67.8215 82.0252 66.0462 82.0252 66.0462Z" fill="white"/>
<path d="M65.2512 49.736C65.2512 49.736 67.8496 52.6557 69.8562 53.9477C71.8628 55.2398 81.493 56.8171 83.6222 58.5622C85.7479 60.3074 83.4296 56.5184 83.4296 56.5184C83.4296 56.5184 84.7568 58.9918 85.2716 58.3877C85.7864 57.7836 84.221 55.6895 84.221 55.6895C84.221 55.6895 86.0525 58.6596 85.9825 57.3172C85.9475 56.6392 85.8424 55.4646 83.6747 54.2129C81.507 52.9611 73.141 51.2227 70.8612 46.3867C69.2679 43.0072 65.2512 49.736 65.2512 49.736Z" fill="#DDA08A"/>
<path d="M94.2575 39.1109C94.2575 39.1109 92.9933 38.1847 92.1038 38.1578C91.2143 38.131 93.5746 39.658 93.5746 39.658C93.5746 39.658 91.0287 38.8928 91.0603 39.2183C91.0918 39.5438 93.0528 40.658 93.0528 40.658C93.0528 40.658 90.5069 39.8929 90.9062 40.3929C91.3054 40.893 92.8392 41.5977 92.9303 41.9199C93.0213 42.2421 92.5311 43.4469 92.9618 43.5945C93.3925 43.7422 94.5867 41.8024 94.8003 41.1245C95.0139 40.4466 94.9964 39.6546 94.254 39.1109H94.2575Z" fill="#DDA08A"/>
<path d="M72.1638 47.4002C72.1638 47.4002 65.3281 50.5213 65.0024 50.1286C64.6767 49.736 62.9958 42.6078 64.4316 40.3795C66.3576 37.3893 70.5914 36.3757 71.2393 36.8422C71.8871 37.3087 74.279 47.3968 72.1603 47.3968L72.1638 47.4002Z" fill="#76C5CA"/>
<path d="M81.4826 86.2828C81.4721 86.1687 80.3199 74.8221 79.8192 73.4964L80.0678 73.4092C80.5826 74.765 81.6997 85.7895 81.7452 86.2559L81.4826 86.2794V86.2828Z" fill="#261E35"/>
<path d="M73.127 45.2624C73.1129 45.2087 71.7087 39.8592 70.8402 38.9061L71.0363 38.7417C71.9468 39.7384 73.3231 44.9805 73.3791 45.202L73.1235 45.2624H73.127Z" fill="#261E35"/>
<path d="M83.4156 43.769L83.1564 43.7354C83.6537 40.0505 82.0708 38.9363 82.0533 38.9263L82.2039 38.7182C82.274 38.7652 83.9339 39.9163 83.4156 43.7656V43.769Z" fill="#261E35"/>
<path d="M124.132 86.5882C124.132 86.5882 123.821 90.1758 125.06 90.6591C126.3 91.1423 131.511 90.357 131.115 89.867C130.719 89.3771 127.949 88.5481 127.571 87.5413C127.193 86.5345 127.487 85.766 126.664 85.9405C125.841 86.115 124.136 86.5882 124.136 86.5882H124.132Z" fill="#261E35"/>
<path d="M127.046 88.5716L126.934 88.3434C126.958 88.3333 127.526 88.0749 128.117 87.944L128.177 88.189C127.613 88.3166 127.053 88.5683 127.046 88.5716Z" fill="white"/>
<path d="M127.953 89.1321L127.813 88.9206C127.834 88.9072 128.366 88.585 128.937 88.387L129.028 88.6253C128.485 88.8132 127.96 89.1321 127.953 89.1354V89.1321Z" fill="white"/>
<path d="M128.674 89.5616L128.534 89.3501C128.555 89.3367 129.088 89.0145 129.658 88.8165L129.749 89.0548C129.207 89.2461 128.681 89.5616 128.674 89.5649V89.5616Z" fill="white"/>
<path d="M109.368 86.3264C109.368 86.3264 108.759 89.8771 109.953 90.4543C111.147 91.0315 116.41 90.6456 116.053 90.1288C115.696 89.612 113.01 88.5716 112.712 87.5413C112.418 86.5077 112.779 85.766 111.942 85.8767C111.105 85.9875 109.368 86.3264 109.368 86.3264Z" fill="#261E35"/>
<path d="M112.107 88.5246L112.012 88.2897C112.037 88.2796 112.625 88.0682 113.224 87.981L113.262 88.2293C112.692 88.3132 112.11 88.5213 112.103 88.5246H112.107Z" fill="white"/>
<path d="M112.965 89.1556L112.842 88.9341C112.867 88.9207 113.423 88.6421 114.008 88.4877L114.078 88.7294C113.521 88.877 112.972 89.1522 112.965 89.1556Z" fill="white"/>
<path d="M113.644 89.6388L113.522 89.4173C113.546 89.4039 114.103 89.1253 114.688 88.9709L114.758 89.2126C114.201 89.3602 113.651 89.6354 113.644 89.6388Z" fill="white"/>
<path d="M122.721 47.7156C122.721 47.7156 128.254 55.2029 129.991 62.7941C131.203 68.0899 130.317 85.8801 130.099 86.2962C129.227 87.9709 121.744 87.5211 120.875 86.0881C120.007 84.6551 121.527 70.3418 121.31 67.6805C121.093 65.0192 115.56 54.676 115.56 54.676C115.56 54.676 118.273 65.1098 118.491 66.9522C118.708 68.7947 116.645 86.5076 115.994 86.7124C115.342 86.9171 106.661 88.2393 106.227 86.1922C105.793 84.145 107.313 69.2108 106.77 64.5023C106.227 59.7939 101.671 51.1925 104.381 49.454C107.092 47.7156 122.721 47.7123 122.721 47.7123V47.7156Z" fill="#786992"/>
<path d="M124.668 14.1389C124.668 14.1389 131.255 27.0494 129.847 29.8383C128.44 32.6237 118.168 34.4662 117.219 32.2881C116.27 30.1101 115.132 28.9657 117.093 27.6367C119.054 26.3078 123.334 25.5023 122.966 24.7908C122.598 24.0794 120.616 15.0182 121.597 12.5045C122.577 9.99088 122.795 10.7292 124.672 14.1423L124.668 14.1389Z" fill="#DDA08A"/>
<path d="M102.431 31.7008C102.431 31.7008 108.289 25.9285 112.523 26.5527C116.757 27.1769 120.255 33.7278 121.558 37.161C122.861 40.5942 124.896 48.8097 123.918 49.2762C122.941 49.7427 104.928 52.8067 103.516 50.9407C101.237 47.9237 106.581 44.4167 103.002 40.5942C100.452 37.8758 99.9899 33.107 102.431 31.7042V31.7008Z" fill="#8FB0E0"/>
<path d="M112.52 26.5527C112.52 26.5527 118.911 24.6498 119.779 26.1064C120.648 27.5629 123.589 33.9862 121.852 34.6105C120.115 35.2347 115.342 36.067 114.04 34.6105C112.737 33.1539 112.52 26.5493 112.52 26.5493V26.5527Z" fill="#261E35"/>
<path d="M109.873 10.7829C109.873 10.7829 119.485 7.75575 119.92 8.23566C120.354 8.71557 123.005 15.5853 120.96 17.3271C118.914 19.0688 119.034 19.7434 119.51 21.2737C119.983 22.8041 123.166 22.7772 121.604 23.8109C120.042 24.8445 117.149 25.2674 116.442 24.9116C115.735 24.5559 117.808 22.6933 117.51 21.5892C117.213 20.4884 116.589 19.9951 113.935 19.4749C111.28 18.9581 109.197 11.0077 109.873 10.7795V10.7829Z" fill="#E7BF61"/>
<path d="M111.669 12.2193C111.669 12.2193 107.999 12.716 107.47 15.082C106.847 17.8708 108.703 19.4213 111.126 19.9952C113.549 20.569 116.782 19.3575 117.451 20.2502C118.119 21.1429 118.105 19.4985 116.691 19.0286C115.276 18.5588 110.254 19.2703 109.312 16.9177C108.619 15.186 110.832 14.3671 111.581 14.1826C112.331 13.998 111.665 12.2227 111.665 12.2227L111.669 12.2193Z" fill="#E7BF61"/>
<path d="M119.104 10.3768C119.104 10.3768 122.563 9.10819 124.223 10.9305C126.177 13.0817 125.34 15.3 123.509 16.9277C121.677 18.5553 118.239 18.9983 118.105 20.089C117.972 21.1797 117.153 19.7366 118.151 18.6661C119.149 17.5955 123.905 15.8907 123.537 13.3938C123.267 11.5581 120.918 11.8668 120.168 12.0514C119.419 12.236 119.104 10.3768 119.104 10.3768Z" fill="#E7BF61"/>
<path d="M114.866 13.6019C114.866 13.6019 114.488 11.2862 114.964 11.4607C115.44 11.6353 116.589 12.9407 116.589 12.9407C116.589 12.9407 118.386 12.5548 118.561 12.7461C118.736 12.9374 117.808 14.3503 117.808 14.3503C117.808 14.3503 118.932 15.6188 118.736 16.0215C118.54 16.4243 116.614 15.7598 116.614 15.7598C116.614 15.7598 115.43 17.2868 115.097 17.1928C114.765 17.0988 114.723 15.5819 114.723 15.5819C114.723 15.5819 113.364 15.0953 113.276 14.763C113.189 14.4308 114.866 13.6052 114.866 13.6052V13.6019Z" fill="#F3D995"/>
<path d="M118.813 9.63176C118.813 9.63176 119.72 11.8199 120.07 12.924C120.42 14.0281 121.016 12.6354 120.203 10.8366C119.391 9.03775 119.517 9.08138 119.156 9.0948C118.795 9.10822 118.711 9.3767 118.813 9.63176Z" fill="white"/>
<path d="M103.502 19.6461C103.502 19.6461 103.59 17.0687 101.02 17.364C98.4492 17.6594 97.4722 18.2399 96.7018 19.4649C95.9314 20.6898 97.8364 20.1159 97.5492 20.6831C97.2621 21.2503 95.8753 21.1429 95.5426 22.7873C95.1889 24.5224 95.8018 27.0897 97.3496 27.4085C98.8975 27.7273 98.015 28.8449 100.55 28.9154C103.086 28.9859 103.842 28.3113 103.898 27.7274C103.954 27.1434 103.499 19.6461 103.499 19.6461H103.502Z" fill="#261E35"/>
<path d="M101.443 25.3715C101.331 25.3446 99.1251 24.6365 99.0201 25.7071C98.9115 26.7776 99.8045 28.3449 101.583 27.7207C103.362 27.0964 102.161 25.546 101.443 25.3715Z" fill="#DDA08A"/>
<path d="M98.5613 23.529C98.5613 23.529 98.7889 21.1999 100.908 20.0052C103.026 18.8104 105.996 20.6898 106.815 22.9618C107.635 25.2338 104.711 26.2608 108.051 28.3817C109.69 29.4221 104.921 32.2814 104.798 30.8216C104.56 27.9656 97.6683 26.4823 98.5613 23.529Z" fill="#DDA08A"/>
<path d="M104.599 24.3747L104.371 24.2505C104.56 23.9317 104.711 23.5827 104.714 23.4686L103.187 22.8544L103.289 22.6229L104.851 23.2538C104.903 23.2739 104.942 23.3176 104.963 23.3713C105.04 23.5927 104.739 24.1498 104.602 24.3781L104.599 24.3747Z" fill="#261E35"/>
<path d="M104.602 25.2673C104.287 25.2673 104.007 25.1096 103.989 25.1029L104.122 24.8848C104.122 24.8848 104.518 25.1029 104.812 24.9754C104.984 24.8982 105.099 24.7136 105.155 24.4183L105.414 24.4619C105.341 24.8411 105.176 25.0895 104.921 25.2036C104.816 25.2506 104.707 25.2673 104.602 25.2673Z" fill="#261E35"/>
<path d="M102.112 24.3848C102.337 24.3848 102.518 24.2105 102.518 23.9955C102.518 23.7805 102.337 23.6062 102.112 23.6062C101.888 23.6062 101.706 23.7805 101.706 23.9955C101.706 24.2105 101.888 24.3848 102.112 24.3848Z" fill="#261E35"/>
<path d="M104.423 22.2135C104.648 22.2135 104.83 22.0392 104.83 21.8242C104.83 21.6092 104.648 21.4349 104.423 21.4349C104.199 21.4349 104.017 21.6092 104.017 21.8242C104.017 22.0392 104.199 22.2135 104.423 22.2135Z" fill="#261E35"/>
<path d="M98.7643 21.6732C98.7643 21.6732 100.155 22.8645 99.8289 23.868C99.5032 24.8714 99.3806 24.7238 100.137 25.2674C100.893 25.8111 101.545 26.0829 100.879 26.2105C100.214 26.338 99.3071 25.301 99.0514 25.9789C98.7958 26.6568 100.039 27.7609 100.368 27.9757C100.697 28.1905 98.8343 27.9187 97.8503 26.0594C96.8662 24.2002 97.5491 22.3041 98.7608 21.6698L98.7643 21.6732Z" fill="#261E35"/>
<path d="M108.479 17.1928C108.479 17.1928 109.34 15.7934 109.788 15.8303C110.237 15.8672 109.816 17.3002 109.816 17.3002C109.816 17.3002 110.534 16.3471 110.996 16.4847C111.459 16.6223 111.098 17.7332 111.098 17.7332C111.098 17.7332 111.742 17.0016 112.082 17.0519C112.422 17.1022 112.359 18.4715 112.135 19.1997C111.91 19.928 118.659 29.9389 117.454 31.9156C116.249 33.8923 115.174 34.691 112.597 33.0902C110.019 31.4894 107.705 18.4681 108.479 17.1895V17.1928Z" fill="#DDA08A"/>
<path d="M117.58 31.6572C117.58 31.6572 115.353 35.5401 113.577 35.8354C111.802 36.1307 109.344 31.5666 109.344 30.5329C109.344 29.4993 111.876 27.2306 113.262 27.6736C114.649 28.1166 117.577 30.553 117.577 31.6605L117.58 31.6572Z" fill="#DDA08A"/>
<path d="M104.553 41.3393H104.543V41.0876C104.595 41.0876 109.326 41.1144 112.989 36.8422L113.192 37.0033C109.529 41.2755 104.795 41.3393 104.553 41.3393Z" fill="white"/>
<path d="M122.308 84.9605L122.049 84.9236C122.395 82.6046 122.9 65.489 121.516 62.529C120.126 59.559 116.897 55.3136 116.862 55.2733L117.076 55.1257C117.107 55.1693 120.357 59.4348 121.754 62.4283C123.152 65.4185 122.654 82.6314 122.308 84.9605Z" fill="#261E35"/>
<path d="M107.551 84.6518L107.292 84.6115C107.32 84.4538 109.988 68.7779 108.811 64.1734C107.635 59.5556 105.26 53.743 105.236 53.686L105.481 53.5953C105.506 53.6524 107.887 59.4818 109.067 64.1164C110.254 68.7678 107.659 84.0074 107.551 84.6518Z" fill="#261E35"/>
<path d="M115.423 53.8739C115.371 53.8739 115.307 53.8605 115.237 53.8135C114.73 53.4746 114.386 51.4006 114.348 51.1657L114.607 51.1287C114.744 51.9778 115.076 53.4007 115.388 53.6088C115.406 53.6189 115.416 53.6256 115.427 53.6222C115.773 53.5551 115.899 51.4241 115.756 50.33L116.015 50.2998C116.06 50.6455 116.242 53.7229 115.476 53.8706C115.458 53.8706 115.441 53.8773 115.42 53.8773L115.423 53.8739Z" fill="#261E35"/>
<path d="M123.505 10.4741C123.505 10.4741 122.686 10.9976 123.096 11.3903C123.505 11.7829 124.122 11.1923 124.122 11.1923C124.122 11.1923 123.779 11.7829 124.052 12.1756C124.325 12.5682 124.668 11.9776 124.668 11.9776C124.668 11.9776 124.395 12.8938 124.738 12.9609C125.081 13.028 125.421 12.83 125.284 11.9776C125.148 11.1252 124.258 10.407 123.509 10.4707L123.505 10.4741Z" fill="#DDA08A"/>
<path d="M140.735 106.107L78.9996 106.107C74.3946 106.107 70.6581 102.526 70.6581 98.1126C70.6581 93.6995 74.3946 90.1186 78.9996 90.1186H140.735V106.107Z" fill="#E7BF61"/>
<path d="M120.466 92.9277H80.4145C77.4238 92.9277 75.0005 95.25 75.0005 98.116C75.0005 100.982 77.4238 103.304 80.4145 103.304H141.736V92.931H120.466V92.9277Z" fill="#FCF6F0"/>
<path d="M141.877 94.9078H76.2788V95.1595H141.877V94.9078Z" fill="#261E35"/>
<path d="M141.712 100.522H75.6274V100.774H141.712V100.522Z" fill="#261E35"/>
<path d="M141.712 97.8711H75.0005V98.1228H141.712V97.8711Z" fill="#261E35"/>
<path d="M71.7997 106.029H133.535C138.14 106.029 141.877 109.61 141.877 114.023C141.877 118.437 138.14 122.017 133.535 122.017H71.7997V106.029Z" fill="#8FB0E0"/>
<path d="M92.0687 119.212H110.853H132.124C135.114 119.212 137.538 116.889 137.538 114.023C137.538 111.157 135.114 108.835 132.124 108.835H110.853H92.0687H70.7981V119.208H92.0687V119.212Z" fill="#FCF6F0"/>
<path d="M136.256 116.98H70.6582V117.232H136.256V116.98Z" fill="url(#paint5_linear_2419_48169)"/>
<path d="M136.907 111.362H70.8228V111.614H136.907V111.362Z" fill="url(#paint6_linear_2419_48169)"/>
<path d="M137.534 114.013H70.8228V114.265H137.534V114.013Z" fill="url(#paint7_linear_2419_48169)"/>
<path d="M64.3581 80.8091C64.3581 80.8091 65.083 77.2753 70.2764 76.7115C75.4697 76.1443 76.3242 81.8495 74.6818 84.8095C73.0394 87.7695 64.3371 87.0546 64.3581 80.8091Z" fill="#261E35"/>
<path d="M71.0398 82.6382C71.1098 82.5509 72.4125 80.7051 73.176 81.4938C73.9394 82.2824 74.223 84.0443 72.416 84.5846C70.609 85.125 70.5775 83.1919 71.0363 82.6382H71.0398Z" fill="#DDA08A"/>
<path d="M70.6442 79.4668C70.6442 79.4668 68.501 78.3459 66.2843 79.3594C64.0641 80.3729 64.0291 83.7859 65.5384 85.7056C67.0477 87.6252 69.2539 86.0244 69.2119 87.9071C69.1699 89.7898 68.9002 90.112 69.0963 90.2899C70.7527 91.7833 71.25 91.9377 73.2356 90.2899C73.7574 89.857 73.4912 88.2696 73.0255 87.6118C72.1675 86.4003 73.7013 80.4031 70.6442 79.4634V79.4668Z" fill="#DDA08A"/>
<path d="M67.8566 84.7492C67.5834 84.7089 66.9391 84.5982 66.806 84.4035C66.7745 84.3565 66.764 84.2995 66.778 84.2491L67.2157 82.6785L67.4679 82.7423L67.0406 84.276C67.1387 84.3431 67.5169 84.4438 67.8951 84.4975L67.8566 84.7458V84.7492Z" fill="#261E35"/>
<path d="M68.0036 85.5813C67.8285 85.5813 67.6359 85.5276 67.4293 85.4236L67.5519 85.1987C67.8285 85.3363 68.0527 85.3632 68.2208 85.2793C68.5044 85.135 68.5675 84.7054 68.5675 84.702L68.8266 84.7322C68.8266 84.7557 68.7495 85.296 68.3398 85.5008C68.2383 85.5511 68.1262 85.5779 68.0036 85.5779V85.5813Z" fill="#261E35"/>
<path d="M69.0682 83.0274C69.2925 83.0274 69.4744 82.8531 69.4744 82.6381C69.4744 82.4231 69.2925 82.2488 69.0682 82.2488C68.8438 82.2488 68.6619 82.4231 68.6619 82.6381C68.6619 82.8531 68.8438 83.0274 69.0682 83.0274Z" fill="#261E35"/>
<path d="M65.8605 83.4436C66.0848 83.4436 66.2667 83.2693 66.2667 83.0543C66.2667 82.8393 66.0848 82.665 65.8605 82.665C65.6361 82.665 65.4542 82.8393 65.4542 83.0543C65.4542 83.2693 65.6361 83.4436 65.8605 83.4436Z" fill="#261E35"/>
<path d="M75.4767 80.977C77.2154 80.977 78.6249 79.6262 78.6249 77.9599C78.6249 76.2936 77.2154 74.9429 75.4767 74.9429C73.738 74.9429 72.3285 76.2936 72.3285 77.9599C72.3285 79.6262 73.738 80.977 75.4767 80.977Z" fill="#261E35"/>
<path d="M69.3764 78.3726C69.3764 78.3726 70.3325 78.5069 70.7107 79.7855C71.0889 81.0641 71.376 83.1516 71.7227 83.467C72.0694 83.7825 72.1079 81.4669 72.7873 81.6078C73.4667 81.7488 73.9359 82.4334 73.8484 83.2959C73.7853 83.9503 75.7149 80.1781 72.6822 78.329C69.6531 76.4798 69.3729 78.3693 69.3729 78.3693L69.3764 78.3726Z" fill="#261E35"/>
<path d="M69.0192 87.501C69.0192 87.501 73.5682 86.7962 74.2651 87.4842C74.9619 88.1722 74.4156 89.9475 74.8184 90.2999C75.2211 90.6523 78.821 91.7061 80.2008 93.1894C81.5805 94.6728 83.3455 108.828 77.4413 116.755C76.002 118.685 64.3126 107.315 61.1119 106.607C57.9111 105.899 62.0364 95.3507 61.8473 93.6156C61.5636 90.9778 67.8986 90.8201 68.2172 89.8066C68.5359 88.7931 67.6114 88.1688 69.0192 87.501Z" fill="#8FB0E0"/>
<path d="M38.4825 118.138C38.4825 118.138 36.7421 121.326 35.4253 121.098C34.1086 120.87 30.148 117.53 30.7573 117.322C31.3666 117.114 34.1646 117.832 35.0506 117.178C35.9366 116.524 36.1117 115.722 36.7105 116.292C37.3094 116.863 38.4825 118.135 38.4825 118.135V118.138Z" fill="#261E35"/>
<path d="M34.914 118.316C34.914 118.316 34.5779 117.806 34.1751 117.413L34.3642 117.235C34.788 117.651 35.1242 118.158 35.1382 118.182L34.9175 118.316H34.914Z" fill="white"/>
<path d="M33.8355 118.326C33.8355 118.326 33.5659 117.782 33.2122 117.343L33.4188 117.188C33.79 117.648 34.0596 118.195 34.0701 118.215L33.832 118.323L33.8355 118.326Z" fill="white"/>
<path d="M32.9879 118.319C32.9879 118.319 32.7183 117.775 32.3646 117.336L32.5712 117.181C32.9424 117.641 33.2121 118.188 33.2226 118.208L32.9844 118.316L32.9879 118.319Z" fill="white"/>
<path d="M35.3028 114.091C35.3028 114.091 44.9751 102.224 52.126 102.66C57.7956 103.009 72.2725 116.769 71.5931 119.675C70.9138 122.581 65.829 123.843 61.9349 122.561C58.0407 121.279 51.7233 111.973 50.4171 112.584C49.1074 113.198 44.1171 119.98 39.9989 119.531C35.8806 119.081 34.3153 115.255 35.3028 114.091Z" fill="#F3D995"/>
<path d="M52.6933 103.546C52.6933 103.546 50.5256 94.5755 52.5707 93.7163C54.6158 92.8572 66.4698 92.0484 66.9741 93.5586C67.4784 95.0688 67.8355 104.711 67.8355 104.711C67.8355 104.711 72.9799 105.593 73.33 106.462C73.6802 107.332 72.6927 108.493 72.6927 108.493C72.6927 108.493 51.9894 106.201 52.6898 103.549L52.6933 103.546Z" fill="#FCF6F0"/>
<path d="M44.0855 120.685C44.0855 120.685 42.9859 124.125 41.6482 124.135C40.3105 124.145 35.7755 121.558 36.3358 121.246C36.8961 120.933 39.7852 121.148 40.5276 120.349C41.27 119.551 41.291 118.732 41.9914 119.188C42.6918 119.645 44.0855 120.688 44.0855 120.688V120.685Z" fill="#261E35"/>
<path d="M40.6116 121.487C40.6116 121.487 40.1844 121.048 39.7116 120.729L39.8622 120.521C40.3595 120.853 40.7867 121.296 40.8042 121.313L40.6116 121.484V121.487Z" fill="white"/>
<path d="M39.5541 121.685C39.5541 121.685 39.1829 121.199 38.7556 120.829L38.9307 120.641C39.3825 121.031 39.7537 121.517 39.7677 121.538L39.5541 121.685Z" fill="white"/>
<path d="M38.7171 121.829C38.7171 121.829 38.3459 121.343 37.9186 120.974L38.0937 120.786C38.5455 121.175 38.9167 121.662 38.9307 121.682L38.7171 121.829Z" fill="white"/>
<path d="M38.4159 116.98C38.4159 116.98 50.0108 104.029 55.5858 102.976C63.8048 101.422 77.9525 113.372 77.2732 116.279C76.5938 119.185 72.2164 123.098 68.3223 121.816C64.4282 120.534 58.4259 112.577 57.1162 113.191C55.8065 113.805 50.375 122.846 46.2567 122.397C42.1385 121.944 37.3023 119.675 38.4159 116.983V116.98Z" fill="#F3D995"/>
<path d="M72.5281 100.378C75.7954 100.046 82.6066 100.747 80.9957 103.915C80.5895 104.714 75.8059 95.8709 76.086 95.1158C76.7339 93.364 83.5731 94.0687 84.0809 96.2031C84.5887 98.3376 87.8559 109.006 83.342 108.828C78.828 108.651 73.33 103.556 72.2129 103.63C71.0958 103.704 69.569 105.439 69.681 104.805C69.7931 104.17 70.6546 103.606 70.6546 103.606C70.6546 103.606 69.1312 104.754 69.0717 104.341C69.0122 103.929 69.8631 102.952 69.8631 102.952C69.8631 102.952 68.3293 104.217 68.2207 103.798C68.1122 103.378 69.2538 100.71 72.5246 100.381L72.5281 100.378Z" fill="#DDA08A"/>
<path d="M83.8008 103.09C82.7328 101.19 78.625 100.693 78.583 100.69L78.6145 100.442C78.7896 100.462 82.8973 100.959 84.032 102.972L83.8008 103.093V103.09Z" fill="#261E35"/>
<path d="M78.6004 100.566C78.6004 100.566 85.0614 101.361 85.4221 99.9316C85.7828 98.502 83.0478 90.8369 74.8183 90.2999C74.8183 90.2999 76.3522 100.153 78.6039 100.566H78.6004Z" fill="#8FB0E0"/>
<path d="M68.3049 121.94C65.3072 121.621 62.5722 119.111 60.373 117.094C59.2139 116.027 58.2088 115.107 57.4279 114.752C55.2742 113.772 53.6984 116.816 53.6844 116.846L53.4497 116.735C53.4672 116.702 55.1552 113.44 57.5435 114.524C58.3664 114.896 59.382 115.829 60.5586 116.913C62.7263 118.903 65.4263 121.383 68.3364 121.692L68.3084 121.944L68.3049 121.94Z" fill="#261E35"/>
<path d="M38.5911 118.212L38.3775 118.067C38.458 117.96 46.4144 107.238 52.5357 104.469L52.6478 104.697C46.5894 107.436 38.6716 118.104 38.5911 118.212Z" fill="#261E35"/>
<path d="M154.011 59.5892C154.011 59.5892 162.941 61.1464 164.562 75.0805C164.779 76.9565 163.343 78.8392 162.331 79.2956C161.319 79.752 154.28 69.3115 154.28 65.7474C154.28 62.1834 152.995 59.069 154.011 59.5892Z" fill="#B5E9EC"/>
<path d="M140.955 59.7838C140.955 59.7838 142.111 69.2846 140.483 70.2209C138.854 71.1573 120.882 71.5365 120.123 69.7008C118.568 65.942 126.615 50.9005 126.615 50.9005C126.615 50.9005 131.199 51.6623 132.498 52.9107C133.798 54.1591 129.588 61.8578 129.588 61.8578L140.952 59.7838H140.955Z" fill="#B5E9EC"/>
<path d="M141.684 118.044C141.684 118.044 140.686 121.514 141.81 122.209C142.934 122.903 148.212 123.051 147.91 122.501C147.609 121.95 145.053 120.645 144.874 119.591C144.696 118.537 145.133 117.833 144.289 117.859C143.445 117.886 141.68 118.047 141.68 118.047L141.684 118.044Z" fill="#261E35"/>
<path d="M144.167 120.507L144.1 120.266C144.125 120.259 144.734 120.108 145.34 120.081L145.35 120.333C144.773 120.356 144.17 120.507 144.167 120.511V120.507Z" fill="white"/>
<path d="M144.951 121.219L144.853 120.984C144.878 120.974 145.463 120.752 146.061 120.658L146.103 120.907C145.533 120.997 144.955 121.215 144.948 121.219H144.951Z" fill="white"/>
<path d="M145.575 121.769L145.476 121.534C145.501 121.524 146.086 121.303 146.685 121.209L146.727 121.457C146.156 121.548 145.578 121.766 145.571 121.769H145.575Z" fill="white"/>
<path d="M155.961 117.963C155.961 117.963 154.963 121.433 156.087 122.128C157.211 122.823 162.489 122.971 162.188 122.42C161.886 121.87 159.33 120.564 159.151 119.511C158.973 118.457 159.411 117.752 158.567 117.779C157.723 117.806 155.958 117.967 155.958 117.967L155.961 117.963Z" fill="#261E35"/>
<path d="M158.444 120.423L158.377 120.182C158.402 120.175 159.011 120.021 159.617 119.997L159.628 120.249C159.05 120.272 158.448 120.423 158.444 120.427V120.423Z" fill="white"/>
<path d="M159.228 121.138L159.13 120.903C159.155 120.893 159.74 120.672 160.339 120.578L160.381 120.826C159.81 120.917 159.232 121.135 159.225 121.138H159.228Z" fill="white"/>
<path d="M159.852 121.685L159.754 121.45C159.778 121.44 160.363 121.219 160.962 121.125L161.004 121.373C160.433 121.464 159.855 121.682 159.848 121.685H159.852Z" fill="white"/>
<path d="M132.722 51.1488C132.722 51.1488 137.527 57.485 137.341 57.6427C137.156 57.8004 127.54 58.579 127.259 58.6059C126.979 58.6327 131.063 51.3099 131.063 51.3099L130.639 47.2525C130.639 47.2525 129.399 45.947 129.679 45.8732C129.959 45.7994 132.624 45.5913 132.947 45.5611C133.167 45.541 132.309 47.1854 132.309 47.1854L132.722 51.1522V51.1488Z" fill="#FCF6F0"/>
<path d="M135.948 57.0386L128.471 57.7535C128.471 57.7535 130.32 54.3337 130.59 54.1625C130.859 53.9914 133.51 53.8135 133.811 53.8538C134.113 53.8941 135.948 57.0386 135.948 57.0386Z" fill="#46909B"/>
<path d="M131.276 48.5882C131.276 48.5882 133.188 48.8768 133.237 49.3399C133.286 49.8031 131.875 49.6252 131.875 49.6252C131.875 49.6252 134.004 50.4407 133.363 50.5817C132.722 50.7226 131.493 50.6823 131.493 50.6823C131.493 50.6823 134.239 51.9106 133.276 52.0784C132.313 52.2462 131.374 51.867 130.807 51.9241C130.24 51.9811 130.268 52.112 129.186 51.9408C127.561 51.6824 128.968 49.199 131.276 48.5882Z" fill="#DDA08A"/>
<path d="M140.182 119.229C140.182 119.229 146.474 119.665 147.994 118.574C149.514 117.483 146.909 86.9875 147.56 89.6018C148.211 92.2162 151.044 118.826 152.347 119.262C153.65 119.698 159.4 120.39 160.486 118.43C161.571 116.47 157.978 82.4133 156.024 80.0171C154.07 77.6209 138.662 78.2753 136.273 81.3226C133.885 84.3732 137.142 118.138 140.182 119.225V119.229Z" fill="#76C5CA"/>
<path d="M143.925 59.9348C143.925 59.9348 153.604 58.4246 154.83 61.0255C156.728 65.0527 158.738 82.863 158.738 83.9571C158.738 85.0511 138.392 84.4236 136.764 84.4236C135.135 84.4236 134.81 66.328 136.925 63.3647C139.04 60.4013 143.925 59.9315 143.925 59.9315V59.9348Z" fill="#F3D995"/>
<path d="M133.668 93.4713C133.668 93.4713 141.278 94.0955 142.945 92.3806C143.859 91.4409 146.075 60.4282 143.922 59.9348C141.018 59.267 137.737 59.7804 135.944 63.8345C134.155 67.8919 131.71 92.2262 133.664 93.4713H133.668Z" fill="#B5E9EC"/>
<path d="M151.171 59.3945C151.171 59.3945 153.597 91.3906 155.061 92.0149C156.525 92.6391 160.325 93.2633 161.463 91.7028C162.601 90.1422 158.413 63.7808 156.784 61.5994C155.156 59.418 153.401 59.3308 151.171 59.3945Z" fill="#B5E9EC"/>
<path d="M143.109 53.5383C143.109 53.5383 140.931 53.3907 141.046 51.3536C141.155 49.4809 142.458 50.1353 143.326 49.0144C144.195 47.8935 143.165 45.739 146.558 45.8229C148.092 45.8598 148.337 47.3633 148.337 47.3633C148.337 47.3633 149.682 46.239 151.895 47.2794C154.109 48.3197 154.238 52.2698 153.503 53.5182C152.767 54.7666 152.592 55.807 151.377 56.4312C150.162 57.0554 148.513 56.3909 148.208 55.4345C147.903 54.478 143.41 54.7465 143.109 53.5417V53.5383Z" fill="#B94D59"/>
<path d="M148.393 53.4342C148.478 53.3604 150.053 51.7227 150.687 52.612C151.321 53.5014 151.321 55.2867 149.451 55.5586C147.581 55.8338 147.851 53.9175 148.393 53.4342Z" fill="#DDA08A"/>
<path d="M149.997 50.491C149.997 50.491 148.628 48.5546 146.173 48.4808C143.715 48.4103 142.29 51.3971 142.479 53.7967C142.78 57.6393 145.785 55.0317 145.501 59.7032C145.385 61.5826 146.741 62.7438 148.562 61.9316C149.188 61.6531 150.39 61.4618 149.864 60.0858C148.278 55.9009 152.263 52.6691 149.997 50.491Z" fill="#DDA08A"/>
<path d="M145.126 54.0148C144.892 53.8772 144.345 53.5282 144.303 53.2967C144.293 53.2396 144.307 53.1859 144.342 53.1456L145.396 51.8737L145.602 52.0314L144.573 53.2765C144.632 53.3738 144.941 53.6121 145.266 53.8034L145.126 54.0182V54.0148Z" fill="#261E35"/>
<path d="M145.207 54.8907C144.944 54.8907 144.692 54.7498 144.454 54.4679L144.657 54.3102C144.853 54.5417 145.049 54.6558 145.238 54.639C145.56 54.6156 145.795 54.2464 145.799 54.243L146.026 54.3706C146.012 54.3907 145.722 54.8572 145.259 54.8907C145.242 54.8907 145.224 54.8907 145.207 54.8907Z" fill="#261E35"/>
<path d="M147.115 52.9242C147.34 52.9242 147.521 52.7499 147.521 52.5349C147.521 52.3199 147.34 52.1456 147.115 52.1456C146.891 52.1456 146.709 52.3199 146.709 52.5349C146.709 52.7499 146.891 52.9242 147.115 52.9242Z" fill="#261E35"/>
<path d="M144.002 52.0852C144.227 52.0852 144.408 51.9109 144.408 51.6959C144.408 51.4809 144.227 51.3066 144.002 51.3066C143.778 51.3066 143.596 51.4809 143.596 51.6959C143.596 51.9109 143.778 52.0852 144.002 52.0852Z" fill="#261E35"/>
<path d="M148.887 48.9574C148.887 48.9574 148.264 50.6421 149.055 51.3737C149.847 52.1053 149.878 51.9174 149.486 52.743C149.094 53.5685 148.66 54.1089 149.308 53.9109C149.955 53.7129 150.229 52.3872 150.792 52.8671C151.356 53.347 150.82 54.8875 150.642 55.2231C150.463 55.5587 151.959 54.4646 151.888 52.3839C151.818 50.3032 150.271 48.954 148.887 48.9574Z" fill="#B94D59"/>
<path d="M162.139 70.5666C162.139 70.5666 152.844 69.1269 152.221 69.3048C151.598 69.4826 149.083 82.3764 149.083 82.3764C149.083 82.3764 160.769 84.2121 161.204 83.4335C161.638 82.6549 164.177 71.2781 162.139 70.5633V70.5666Z" fill="#261E35"/>
<path d="M162.195 75.6677C162.037 75.4898 160.937 74.238 159.999 73.6944C159.06 73.1507 160.475 74.9428 160.475 74.9428C160.475 74.9428 159.064 73.9662 158.938 74.6542C158.812 75.3422 160.157 76.0939 160.157 76.0939C160.157 76.0939 158.378 75.3052 158.286 75.8187C158.195 76.3322 160.986 78.2015 161.652 79.2318C162.317 80.2621 163.784 77.4866 162.195 75.6677Z" fill="#DDA08A"/>
<path d="M153.086 69.3551C153.086 69.3551 154.911 69.4793 154.907 71.3553C154.904 73.2313 161.894 72.7581 163.354 73.0702C164.814 73.3823 163.76 69.7746 162.583 68.7309C161.407 67.6872 152.876 67.0563 153.09 69.3585L153.086 69.3551Z" fill="#FCF6F0"/>
<path d="M142.801 84.9941C142.79 84.9739 141.642 82.8328 141.036 81.4199C140.451 80.0507 142.608 77.4934 143.022 77.0202C142.58 76.3759 139.576 71.9795 138.956 71.2076C138.259 70.3418 141.869 64.2976 142.598 63.0928L142.825 63.2204C141.169 65.9488 138.711 70.4895 139.162 71.0533C139.835 71.8889 143.155 76.7518 143.295 76.9598L143.351 77.0404L143.284 77.1108C143.26 77.141 140.707 79.9869 141.278 81.3226C141.876 82.7288 143.022 84.8565 143.032 84.8766L142.797 84.9907L142.801 84.9941Z" fill="#261E35"/>
<path d="M161.925 72.0332C161.925 72.0332 160.951 72.0332 158.808 71.9695C156.655 71.9057 155.839 71.7144 155.804 71.7077L155.867 71.4627C155.867 71.4627 156.697 71.654 158.815 71.7178C160.951 71.7815 161.914 71.7815 161.921 71.7815V72.0332H161.925Z" fill="#261E35"/>
<path d="M161.904 70.9929C161.904 70.9929 160.678 70.7983 159.281 70.7345C157.88 70.6708 155.523 70.6708 155.499 70.6708V70.4191C155.523 70.4191 157.887 70.4191 159.291 70.4828C160.703 70.5466 161.932 70.7412 161.946 70.7446L161.904 70.9929Z" fill="#261E35"/>
<path d="M160.353 69.8284C160.353 69.8284 158.661 69.6337 157.933 69.6337C157.204 69.6337 155.04 69.5699 155.019 69.5699L155.026 69.3182C155.047 69.3182 157.197 69.382 157.929 69.382C158.661 69.382 160.311 69.5699 160.381 69.5767L160.349 69.825L160.353 69.8284Z" fill="#261E35"/>
<path d="M154.154 69.1572L154 68.9524C154.813 68.392 156.066 67.3181 155.975 66.808C155.87 66.2005 153.618 63.6533 152.76 62.7237L152.957 62.5559C153.279 62.9049 156.098 65.9757 156.234 66.7677C156.378 67.6 154.382 69.0028 154.151 69.1605L154.154 69.1572Z" fill="#261E35"/>
<path d="M147.462 88.293C147.34 88.293 147.014 88.293 146.79 85.1585L147.052 85.1417C147.14 86.3767 147.329 87.7862 147.487 88.0279C147.721 87.8701 148.404 86.3633 148.096 85.286L148.348 85.2189C148.639 86.2425 148.117 87.6554 147.767 88.095C147.662 88.2259 147.564 88.2896 147.462 88.2896V88.293Z" fill="#261E35"/>
<path d="M140.388 117.302C140.364 117.101 137.891 97.2871 137.891 93.7834H138.154C138.154 97.2703 140.623 117.071 140.647 117.272L140.388 117.302Z" fill="#261E35"/>
<path d="M152.865 117.299C152.851 117.134 151.349 100.834 150.698 96.8206C150.165 93.5552 148.453 90.7563 148.436 90.7295L148.66 90.6019C148.677 90.6288 150.414 93.468 150.957 96.7837C151.612 100.808 153.114 117.114 153.128 117.279L152.865 117.302V117.299Z" fill="#261E35"/>
<path d="M126.496 65.5931L126.324 65.4018C127.217 64.6601 129.518 62.5827 129.459 61.8679C129.455 61.8075 129.431 61.7941 129.417 61.7874C129.028 61.6162 127.217 62.6968 126.055 63.5157L125.901 63.3144C126.388 62.9687 128.856 61.2672 129.525 61.5592C129.641 61.6095 129.711 61.7135 129.721 61.8478C129.798 62.8177 126.836 65.3112 126.496 65.5897V65.5931Z" fill="#261E35"/>
<path d="M106.553 111.708C106.553 111.708 105.954 115.262 107.151 115.832C108.346 116.406 113.609 116.004 113.252 115.49C112.895 114.977 110.202 113.943 109.904 112.913C109.606 111.882 109.964 111.137 109.127 111.252C108.29 111.366 106.556 111.711 106.556 111.711L106.553 111.708Z" fill="#261E35"/>
<path d="M109.298 113.896L109.204 113.661C109.228 113.651 109.816 113.436 110.415 113.349L110.454 113.597C109.883 113.681 109.302 113.893 109.295 113.896H109.298Z" fill="white"/>
<path d="M110.156 114.524L110.033 114.302C110.058 114.289 110.615 114.01 111.2 113.852L111.27 114.094C110.713 114.242 110.163 114.52 110.156 114.524Z" fill="white"/>
<path d="M110.842 115.007L110.72 114.785C110.744 114.772 111.301 114.493 111.886 114.336L111.956 114.577C111.399 114.725 110.849 115.004 110.842 115.007Z" fill="white"/>
<path d="M129.83 102.516C129.83 102.516 132.047 105.422 133.311 105.009C134.575 104.597 137.979 100.73 137.345 100.613C136.711 100.496 134.053 101.603 133.076 101.083C132.099 100.563 131.802 99.7941 131.297 100.445C130.793 101.096 129.83 102.519 129.83 102.519V102.516Z" fill="#261E35"/>
<path d="M133.388 102.184L133.146 102.083C133.157 102.059 133.409 101.509 133.766 101.036L133.98 101.183C133.64 101.633 133.391 102.177 133.388 102.184Z" fill="white"/>
<path d="M134.456 102.043L134.204 101.969C134.211 101.945 134.393 101.368 134.69 100.858L134.922 100.979C134.641 101.465 134.459 102.033 134.459 102.039L134.456 102.043Z" fill="white"/>
<path d="M135.296 101.912L135.044 101.838C135.051 101.814 135.233 101.237 135.531 100.727L135.762 100.848C135.482 101.335 135.3 101.902 135.3 101.908L135.296 101.912Z" fill="white"/>
<path d="M105.033 65.8112C105.033 65.8112 111.76 66.7475 114.8 70.6976C116.102 72.3923 112.737 76 111.76 76.4162C110.783 76.8323 106.77 74.3355 106.227 73.9193C105.684 73.5032 103.187 66.12 105.033 65.8079V65.8112Z" fill="#76C5CA"/>
<path d="M86.2065 69.4726C86.2065 69.4726 84.7567 66.2106 87.11 64.8581C89.4633 63.5056 90.3633 64.6064 90.8185 62.378C91.2738 60.1496 92.5345 58.8173 94.6181 58.7368C96.7017 58.6562 95.9698 55.119 99.2406 53.4813C102.865 51.6657 104.91 52.9208 106.77 55.0989C108.629 57.2769 105.884 62.4015 106.336 63.8345C106.787 65.2675 107.204 66.7677 104.129 68.6772C101.051 70.5868 93.1753 78.7821 86.2065 69.4726Z" fill="#261E35"/>
<path d="M99.7344 58.8073C99.6924 58.7033 99.0411 56.5655 98.0605 57.0924C97.08 57.6193 96.2535 59.2167 97.8014 60.2604C99.3492 61.3042 99.9936 59.4718 99.7309 58.8073H99.7344Z" fill="#DDA08A"/>
<path d="M91.2528 91.0819C91.2528 91.0819 87.6704 87.8568 87.4532 82.6584C87.0926 73.9831 90.0131 67.2946 92.8287 66.3381C97.3111 64.8145 108.878 65.1467 108.832 68.1C108.724 75.0671 110.268 81.467 108.29 81.8261C87.6704 85.5714 96.0259 92.4344 91.2528 91.0819Z" fill="#76C5CA"/>
<path d="M95.6302 84.9438C95.6302 84.9438 101.562 82.8631 106.805 84.5276C110.941 85.8398 113.238 110.319 112.222 111.775C111.207 113.232 104.434 114.064 103.587 111.983C102.739 109.902 102.876 96.0219 100.267 94.9547C97.6613 93.8875 93.4275 92.8472 91.9042 91.6021C90.3808 90.357 91.2528 86.5077 95.6302 84.9471V84.9438Z" fill="#8FB0E0"/>
<path d="M104.056 84.2156C104.056 84.2156 109.515 80.5911 113.823 79.9534C118.126 79.3158 134.032 96.7804 134.085 98.5322C134.137 100.284 129.122 104.724 127.175 103.499C125.228 102.274 116.939 90.8873 114.169 91.4679C111.399 92.0485 107.323 93.5519 105.327 93.3808C103.331 93.2096 100.575 87.3568 104.059 84.2156H104.056Z" fill="#8FB0E0"/>
<path d="M95.8192 72.4159C95.8192 72.4159 96.1799 70.0868 98.0709 69.9123C99.962 69.7378 104.465 73.1072 105.908 72.5031C107.351 71.8991 108.832 68.0967 110.863 68.1873C111.763 68.2276 112.663 69.8284 112.394 71.2077C112.124 72.587 108.16 75.1779 105.817 74.5738C103.474 73.9697 95.6406 73.2784 95.8192 72.4159Z" fill="white"/>
<path d="M93.9107 83.5041C93.9107 83.5041 94.3975 71.493 95.5391 71.3352C96.6807 71.1775 105.141 73.0502 105.632 73.2079C106.122 73.3656 112.142 68.8417 113.119 69.1505C114.096 69.4592 114.583 79.4467 114.583 80.6951C114.583 81.9436 106.77 84.4404 105.793 84.4404C104.816 84.4404 94.7232 84.4404 93.9107 83.5041Z" fill="#261E35"/>
<path d="M83.8287 79.3963C83.8287 79.3963 81.9447 86.1687 85.2435 86.7728C87.9505 87.2661 93.1158 78.2888 95.1889 77.9432C97.2621 77.5975 97.3496 77.0807 97.0799 76.9062C96.8103 76.7317 95.3675 76.9934 95.3675 76.9934C95.3675 76.9934 97.3496 76.1309 96.9889 76.0437C96.6282 75.9564 95.0979 75.9564 95.0979 75.9564C95.0979 75.9564 97.3496 75.2651 96.6282 75.0939C95.9068 74.9228 95.9068 74.7483 94.4675 75.2651C93.0282 75.7819 90.5944 76.386 87.8909 78.6311C87.3586 79.0741 84.5466 78.2721 83.8287 79.3963Z" fill="#DDA08A"/>
<path d="M118.491 75.0637C118.491 75.0637 117.258 72.4158 115.276 71.5534C113.294 70.6909 111.855 70.6909 111.855 71.1204C111.855 71.55 113.476 71.9829 113.476 71.9829C113.476 71.9829 111.676 71.8957 111.946 72.3286C112.215 72.7615 113.567 73.0199 113.567 73.0199C113.567 73.0199 111.406 73.0199 112.037 73.5367C112.667 74.0536 113.567 73.624 114.019 73.9697C114.471 74.3153 113.098 80.1481 115.892 81.0945C118.683 82.0442 121.11 79.1211 118.498 75.0637H118.491Z" fill="#DDA08A"/>
<path d="M99.6609 55.4882C99.6609 55.4882 101.783 54.3338 104.021 55.3171C106.259 56.3004 106.346 59.7101 104.868 61.6532C103.39 63.5963 101.538 62.0761 101.608 63.9588C101.682 65.8415 101.321 64.5897 102.837 66.2107C104.353 67.8316 100.456 68.3048 98.4528 67.4054C97.8294 67.1235 97.8925 66.5597 98.1866 65.1233C98.4808 63.6869 96.6177 56.4749 99.6574 55.4882H99.6609Z" fill="#DDA08A"/>
<path d="M84.5817 75.3356C84.5817 75.3356 90.7066 75.443 92.0653 75.1174C93.424 74.7919 97.2832 65.9891 95.0139 65.771C92.7447 65.5528 86.2837 66.2073 84.5817 75.3356Z" fill="#76C5CA"/>
<path d="M102.392 60.7169L102.368 60.4652C102.75 60.4283 103.135 60.3477 103.233 60.2873L102.886 58.7335L103.142 58.6798L103.496 60.2672C103.506 60.3209 103.496 60.3746 103.461 60.4216C103.317 60.6095 102.666 60.6901 102.392 60.7135V60.7169Z" fill="#261E35"/>
<path d="M102.242 61.5424C102.102 61.5424 101.979 61.5122 101.867 61.4484C101.468 61.2236 101.422 60.6799 101.422 60.6564L101.685 60.6396C101.685 60.6396 101.724 61.0759 102.004 61.2337C102.168 61.3243 102.392 61.3109 102.676 61.1867L102.785 61.4149C102.589 61.5021 102.406 61.5458 102.245 61.5458L102.242 61.5424Z" fill="#261E35"/>
<path d="M101.293 58.9381C101.517 58.9381 101.699 58.7638 101.699 58.5488C101.699 58.3338 101.517 58.1595 101.293 58.1595C101.068 58.1595 100.887 58.3338 100.887 58.5488C100.887 58.7638 101.068 58.9381 101.293 58.9381Z" fill="#261E35"/>
<path d="M104.473 59.5121C104.697 59.5121 104.879 59.3378 104.879 59.1228C104.879 58.9078 104.697 58.7335 104.473 58.7335C104.248 58.7335 104.066 58.9078 104.066 59.1228C104.066 59.3378 104.248 59.5121 104.473 59.5121Z" fill="#261E35"/>
<path d="M103.443 54.6794C103.443 54.6794 102.757 54.4109 102.41 55.4882C102.063 56.5654 100.848 57.9146 99.6924 57.975C98.5368 58.0354 97.9415 56.7467 97.4407 57.7065C96.9399 58.6663 96.8454 59.2335 97.6298 59.4751C98.4142 59.7167 98.943 59.4147 98.6313 59.9248C98.3197 60.4349 100.943 68.0698 93.5676 65.734C93.0423 65.5662 96.3481 60.7336 96.6317 59.116C96.9154 57.4984 96.6633 55.8204 99.1321 54.864C101.601 53.9075 102.977 53.6961 103.446 54.6827L103.443 54.6794Z" fill="#261E35"/>
<path d="M110.328 92.223C110.321 91.9478 108.745 85.558 106.374 84.1115L106.514 83.9001C108.99 85.4103 110.59 91.9545 110.59 92.223H110.328Z" fill="#261E35"/>
<path d="M128.044 102.908C127.949 102.788 118.389 90.7664 116.39 90.1624C114.394 89.5583 110.762 90.8738 110.724 90.8872L110.629 90.6523C110.78 90.5953 114.383 89.2898 116.467 89.9207C118.543 90.5483 127.855 102.257 128.251 102.757L128.04 102.908H128.044Z" fill="#261E35"/>
<path d="M104.686 111.886C104.679 111.741 104.021 97.3308 102.75 95.1997C101.489 93.0855 92.7166 90.706 92.629 90.6826L92.6991 90.4409C93.0633 90.5382 101.664 92.8707 102.977 95.0756C104.28 97.2603 104.921 111.278 104.949 111.876L104.686 111.886Z" fill="#261E35"/>
<path d="M84.5012 75.3356C84.5012 75.3356 88.4584 74.6476 89.5439 75.2718C90.6295 75.896 89.1097 80.9904 89.1097 81.5106C89.1097 82.0308 84.6623 85.568 83.7938 85.36C82.9253 85.1519 83.0409 77.6881 84.5047 75.3356H84.5012Z" fill="#DDA08A"/>
<path d="M85.8179 79.5373L85.6673 79.3292C85.7689 79.2621 88.1957 77.6512 89.7121 77.131L89.7996 77.3693C88.3148 77.8761 85.8389 79.5205 85.8144 79.5373H85.8179Z" fill="#261E35"/>
</g>
<defs>
<linearGradient id="paint0_linear_2419_48169" x1="98.9358" y1="-55.4508" x2="98.9358" y2="150.456" gradientUnits="userSpaceOnUse">
<stop stop-color="#9FC3F9"/>
<stop offset="1" stop-color="#83DBE0"/>
</linearGradient>
<linearGradient id="paint1_linear_2419_48169" x1="123.196" y1="120.87" x2="206" y2="120.87" gradientUnits="userSpaceOnUse">
<stop stop-color="#9FC3F9"/>
<stop offset="1" stop-color="#83DBE0"/>
</linearGradient>
<linearGradient id="paint2_linear_2419_48169" x1="4.08662" y1="120.87" x2="78.639" y2="120.87" gradientUnits="userSpaceOnUse">
<stop stop-color="#9FC3F9"/>
<stop offset="1" stop-color="#83DBE0"/>
</linearGradient>
<linearGradient id="paint3_linear_2419_48169" x1="153.949" y1="84.7241" x2="153.949" y2="127.199" gradientUnits="userSpaceOnUse">
<stop stop-color="#9FC3F9"/>
<stop offset="1" stop-color="#83DBE0"/>
</linearGradient>
<linearGradient id="paint4_linear_2419_48169" x1="129.399" y1="44.0155" x2="143.356" y2="44.0155" gradientUnits="userSpaceOnUse">
<stop stop-color="#9FC3F9"/>
<stop offset="1" stop-color="#83DBE0"/>
</linearGradient>
<linearGradient id="paint5_linear_2419_48169" x1="67.7692" y1="117.232" x2="136.256" y2="117.232" gradientUnits="userSpaceOnUse">
<stop stop-color="#9FC3F9"/>
<stop offset="1" stop-color="#83DBE0"/>
</linearGradient>
<linearGradient id="paint6_linear_2419_48169" x1="67.9124" y1="111.614" x2="136.907" y2="111.614" gradientUnits="userSpaceOnUse">
<stop stop-color="#9FC3F9"/>
<stop offset="1" stop-color="#83DBE0"/>
</linearGradient>
<linearGradient id="paint7_linear_2419_48169" x1="67.8848" y1="114.265" x2="137.534" y2="114.265" gradientUnits="userSpaceOnUse">
<stop stop-color="#9FC3F9"/>
<stop offset="1" stop-color="#83DBE0"/>
</linearGradient>
<clipPath id="clip0_2419_48169">
<rect width="206" height="124.132" fill="white"/>
</clipPath>
</defs>
</svg>
